<svg xmlns="http://www.w3.org/2000/svg" width="11" height="13" viewBox="0 0 11 13">
    <g fill="#FFF" fill-rule="evenodd">
        <g>
            <path d="M0 1.244h8.25v2.75c0 .76-1.847 1.375-4.125 1.375S0 4.753 0 3.994v-2.75z" transform="translate(1 1) translate(0 5.5)"/>
            <path stroke="#D4764F" stroke-width=".8" d="M4.125-.4c1.189 0 2.264.164 3.043.423.435.145.782.323 1.02.515.321.258.462.55.462.837 0 .288-.141.58-.462.837-.238.192-.585.37-1.02.515-.779.26-1.854.423-3.043.423s-2.264-.164-3.043-.423C.647 2.582.3 2.404.062 2.212-.26 1.954-.4 1.662-.4 1.375c0-.288.141-.58.462-.837C.3.346.647.168 1.082.023 1.86-.237 2.936-.4 4.125-.4z" transform="translate(1 1) translate(0 5.5)"/>
        </g>
        <g>
            <path d="M0 1.244h8.25v2.75c0 .76-1.847 1.375-4.125 1.375S0 4.753 0 3.994v-2.75z" transform="translate(1 1) translate(0 2.75)"/>
            <path stroke="#D4764F" stroke-width=".8" d="M4.125-.4c1.189 0 2.264.164 3.043.423.435.145.782.323 1.02.515.321.258.462.55.462.837 0 .288-.141.58-.462.837-.238.192-.585.37-1.02.515-.779.26-1.854.423-3.043.423s-2.264-.164-3.043-.423C.647 2.582.3 2.404.062 2.212-.26 1.954-.4 1.662-.4 1.375c0-.288.141-.58.462-.837C.3.346.647.168 1.082.023 1.86-.237 2.936-.4 4.125-.4z" transform="translate(1 1) translate(0 2.75)"/>
        </g>
        <path d="M0 1.244h8.25v2.75c0 .76-1.847 1.375-4.125 1.375S0 4.753 0 3.994v-2.75z" transform="translate(1 1)"/>
        <path stroke="#D4764F" stroke-width=".8" d="M4.125-.4c1.189 0 2.264.164 3.043.423.435.145.782.323 1.02.515.321.258.462.55.462.837 0 .288-.141.58-.462.837-.238.192-.585.37-1.02.515-.779.26-1.854.423-3.043.423s-2.264-.164-3.043-.423C.647 2.582.3 2.404.062 2.212-.26 1.954-.4 1.662-.4 1.375c0-.288.141-.58.462-.837C.3.346.647.168 1.082.023 1.86-.237 2.936-.4 4.125-.4z" transform="translate(1 1)"/>
    </g>
</svg>
