<svg xmlns="http://www.w3.org/2000/svg" width="268" height="405" viewBox="0 0 268 405">
    <g fill="none" fill-rule="evenodd">
        <g transform="translate(41 146)">
            <path fill="#0C9071" d="M41 45.995L82 22.998 82 72 41 95.008z"/>
            <path fill="#0C7B60" d="M0 45.995L41 22.998 41 72.121 0 95.008z" transform="matrix(-1 0 0 1 41 0)"/>
            <path fill="#0C5241" d="M0 22.998L41 0 82 22.998 41 45.995z" transform="matrix(-1 0 0 1 82 0)"/>
            <ellipse cx="41" cy="33.6" fill="#022C23" rx="9" ry="3.6"/>
            <path fill="#022C23" d="M32 30H50V34H32z"/>
            <ellipse cx="41" cy="11.6" fill="#022C23" rx="9" ry="3.6"/>
            <path fill="#022C23" d="M32 8H50V12H32z"/>
            <ellipse cx="21" cy="22.6" fill="#022C23" rx="9" ry="3.6"/>
            <path fill="#022C23" d="M12 19H30V23H12z"/>
            <ellipse cx="61" cy="22.6" fill="#022C23" rx="9" ry="3.6"/>
            <path fill="#022C23" d="M52 19H70V23H52z"/>
            <ellipse cx="41" cy="29.6" fill="#15A180" rx="9" ry="3.6"/>
            <path fill="#0C5241" d="M42.014 32.6c4.818-.155 9.016-.683 9.016-3.178 0-2.496-4.254-3.814-9.784-3.814-5.53 0-8.216 1.82-8.216 3.5 0 1.681 4.166 3.646 8.984 3.492z"/>
            <ellipse cx="41" cy="7.6" fill="#15A180" rx="9" ry="3.6"/>
            <path fill="#0C5241" d="M42.014 10.6c4.818-.155 9.016-.683 9.016-3.178 0-2.496-4.254-3.814-9.784-3.814-5.53 0-8.216 1.82-8.216 3.5 0 1.681 4.166 3.646 8.984 3.492z"/>
            <ellipse cx="21" cy="18.6" fill="#15A180" rx="9" ry="3.6"/>
            <path fill="#0C5241" d="M22.014 21.6c4.818-.155 9.016-.683 9.016-3.178 0-2.496-4.254-3.814-9.784-3.814-5.53 0-8.216 1.82-8.216 3.5 0 1.681 4.166 3.646 8.984 3.492z"/>
            <ellipse cx="61" cy="18.6" fill="#15A180" rx="9" ry="3.6"/>
            <path fill="#0C5241" d="M62.014 21.6c4.818-.155 9.016-.683 9.016-3.178 0-2.496-4.254-3.814-9.784-3.814-5.53 0-8.216 1.82-8.216 3.5 0 1.681 4.166 3.646 8.984 3.492z"/>
        </g>
        <g transform="translate(0 169)">
            <path fill="#0C9071" d="M41 45.995L82 22.998 82 72 41 95.008z"/>
            <path fill="#00B98D" d="M0 45.995L41 22.998 41 72.121 0 95.008z" transform="matrix(-1 0 0 1 41 0)"/>
            <path fill="#5CD6B9" d="M0 22.998L41 0 82 22.998 41 45.995z" transform="matrix(-1 0 0 1 82 0)"/>
            <ellipse cx="41" cy="33.6" fill="#0C5241" rx="9" ry="3.6"/>
            <path fill="#0C5241" d="M32 30H50V34H32z"/>
            <ellipse cx="41" cy="11.6" fill="#0C5241" rx="9" ry="3.6"/>
            <path fill="#0C5241" d="M32 8H50V12H32z"/>
            <ellipse cx="21" cy="22.6" fill="#0C5241" rx="9" ry="3.6"/>
            <path fill="#0C5241" d="M12 19H30V23H12z"/>
            <ellipse cx="61" cy="22.6" fill="#0C5241" rx="9" ry="3.6"/>
            <path fill="#0C5241" d="M52 19H70V23H52z"/>
            <ellipse cx="41" cy="29.6" fill="#C1F7EA" rx="9" ry="3.6"/>
            <path fill="#5CD6B9" d="M42.014 32.6c4.818-.155 9.016-.683 9.016-3.178 0-2.496-4.254-3.814-9.784-3.814-5.53 0-8.216 1.82-8.216 3.5 0 1.681 4.166 3.646 8.984 3.492z"/>
            <ellipse cx="41" cy="7.6" fill="#C1F7EA" rx="9" ry="3.6"/>
            <path fill="#5CD6B9" d="M42.014 10.6c4.818-.155 9.016-.683 9.016-3.178 0-2.496-4.254-3.814-9.784-3.814-5.53 0-8.216 1.82-8.216 3.5 0 1.681 4.166 3.646 8.984 3.492z"/>
            <ellipse cx="21" cy="18.6" fill="#C1F7EA" rx="9" ry="3.6"/>
            <path fill="#5CD6B9" d="M22.014 21.6c4.818-.155 9.016-.683 9.016-3.178 0-2.496-4.254-3.814-9.784-3.814-5.53 0-8.216 1.82-8.216 3.5 0 1.681 4.166 3.646 8.984 3.492z"/>
            <ellipse cx="61" cy="18.6" fill="#C1F7EA" rx="9" ry="3.6"/>
            <path fill="#5CD6B9" d="M62.014 21.6c4.818-.155 9.016-.683 9.016-3.178 0-2.496-4.254-3.814-9.784-3.814-5.53 0-8.216 1.82-8.216 3.5 0 1.681 4.166 3.646 8.984 3.492z"/>
        </g>
        <g transform="translate(62 85)">
            <path fill="#0C9071" d="M41 45.995L82 22.998 82 72 41 95.008z"/>
            <path fill="#000" d="M0 23.994L41.005 0.987 41.005 3.01 0 26.006z" opacity=".4" transform="translate(41 68.977)"/>
            <path fill="#0C7B60" d="M0 45.995L41 22.998 41 72.121 0 95.008z" transform="matrix(-1 0 0 1 41 0)"/>
            <path fill="#FFF" d="M0 22.981L41 0 41 2.087 0 25.016z" opacity=".4" transform="matrix(-1 0 0 1 41 69.998)"/>
            <path fill="#0C5241" d="M0 22.998L41 0 82 22.998 41 45.995z" transform="matrix(-1 0 0 1 82 0)"/>
            <ellipse cx="41" cy="33.6" fill="#022C23" rx="9" ry="3.6"/>
            <path fill="#022C23" d="M32 30H50V34H32z"/>
            <ellipse cx="41" cy="11.6" fill="#022C23" rx="9" ry="3.6"/>
            <path fill="#022C23" d="M32 8H50V12H32z"/>
            <ellipse cx="21" cy="22.6" fill="#022C23" rx="9" ry="3.6"/>
            <path fill="#022C23" d="M12 19H30V23H12z"/>
            <ellipse cx="61" cy="22.6" fill="#022C23" rx="9" ry="3.6"/>
            <path fill="#022C23" d="M52 19H70V23H52z"/>
            <ellipse cx="41" cy="29.6" fill="#15A180" rx="9" ry="3.6"/>
            <path fill="#0C5241" d="M42.014 32.6c4.818-.155 9.016-.683 9.016-3.178 0-2.496-4.254-3.814-9.784-3.814-5.53 0-8.216 1.82-8.216 3.5 0 1.681 4.166 3.646 8.984 3.492z"/>
            <ellipse cx="41" cy="7.6" fill="#15A180" rx="9" ry="3.6"/>
            <path fill="#0C5241" d="M42.014 10.6c4.818-.155 9.016-.683 9.016-3.178 0-2.496-4.254-3.814-9.784-3.814-5.53 0-8.216 1.82-8.216 3.5 0 1.681 4.166 3.646 8.984 3.492z"/>
            <ellipse cx="21" cy="18.6" fill="#15A180" rx="9" ry="3.6"/>
            <path fill="#0C5241" d="M22.014 21.6c4.818-.155 9.016-.683 9.016-3.178 0-2.496-4.254-3.814-9.784-3.814-5.53 0-8.216 1.82-8.216 3.5 0 1.681 4.166 3.646 8.984 3.492z"/>
            <ellipse cx="61" cy="18.6" fill="#15A180" rx="9" ry="3.6"/>
            <path fill="#0C5241" d="M62.014 21.6c4.818-.155 9.016-.683 9.016-3.178 0-2.496-4.254-3.814-9.784-3.814-5.53 0-8.216 1.82-8.216 3.5 0 1.681 4.166 3.646 8.984 3.492z"/>
        </g>
        <g transform="translate(0 120)">
            <path fill="#0C9071" d="M41 45.995L82 22.998 82 72 41 95.008z"/>
            <path fill="#00B98D" d="M0 45.995L41 22.998 41 72.121 0 95.008z" transform="matrix(-1 0 0 1 41 0)"/>
            <path fill="#5CD6B9" d="M0 22.998L41 0 82 22.998 41 45.995z" transform="matrix(-1 0 0 1 82 0)"/>
            <ellipse cx="41" cy="33.6" fill="#0C5241" rx="9" ry="3.6"/>
            <path fill="#0C5241" d="M32 30H50V34H32z"/>
            <ellipse cx="41" cy="11.6" fill="#0C5241" rx="9" ry="3.6"/>
            <path fill="#0C5241" d="M32 8H50V12H32z"/>
            <ellipse cx="21" cy="22.6" fill="#0C5241" rx="9" ry="3.6"/>
            <path fill="#0C5241" d="M12 19H30V23H12z"/>
            <ellipse cx="61" cy="22.6" fill="#0C5241" rx="9" ry="3.6"/>
            <path fill="#0C5241" d="M52 19H70V23H52z"/>
            <ellipse cx="41" cy="29.6" fill="#C1F7EA" rx="9" ry="3.6"/>
            <path fill="#5CD6B9" d="M42.014 32.6c4.818-.155 9.016-.683 9.016-3.178 0-2.496-4.254-3.814-9.784-3.814-5.53 0-8.216 1.82-8.216 3.5 0 1.681 4.166 3.646 8.984 3.492z"/>
            <ellipse cx="41" cy="7.6" fill="#C1F7EA" rx="9" ry="3.6"/>
            <path fill="#5CD6B9" d="M42.014 10.6c4.818-.155 9.016-.683 9.016-3.178 0-2.496-4.254-3.814-9.784-3.814-5.53 0-8.216 1.82-8.216 3.5 0 1.681 4.166 3.646 8.984 3.492z"/>
            <ellipse cx="21" cy="18.6" fill="#C1F7EA" rx="9" ry="3.6"/>
            <path fill="#5CD6B9" d="M22.014 21.6c4.818-.155 9.016-.683 9.016-3.178 0-2.496-4.254-3.814-9.784-3.814-5.53 0-8.216 1.82-8.216 3.5 0 1.681 4.166 3.646 8.984 3.492z"/>
            <ellipse cx="61" cy="18.6" fill="#C1F7EA" rx="9" ry="3.6"/>
            <path fill="#5CD6B9" d="M62.014 21.6c4.818-.155 9.016-.683 9.016-3.178 0-2.496-4.254-3.814-9.784-3.814-5.53 0-8.216 1.82-8.216 3.5 0 1.681 4.166 3.646 8.984 3.492z"/>
            <path fill="#000" d="M0 23.994L41.005 0.987 41.005 3.01 0 26.006z" opacity=".4" transform="translate(41 68.977)"/>
            <path fill="#000" d="M0 0L0 48.983 1.632 49.886 1.632 0.892z" opacity=".5" transform="translate(39.368 45.09)"/>
            <path fill="#000" d="M0.368 23.114L41.372 0.107 43.005 1.01 2 24.006z" opacity=".5" transform="translate(39 21.977)"/>
            <path fill="#000" d="M0 23.007L41.005 0 42.637 0.903 1.632 23.899z" opacity=".5" transform="matrix(-1 0 0 1 42.637 22)"/>
            <path fill="#FFF" d="M0 22.981L41 0 41 2.087 0 25.016z" opacity=".4" transform="matrix(-1 0 0 1 41 69.998)"/>
        </g>
        <g transform="translate(62 36)">
            <path fill="#0C9071" d="M41 45.995L82 22.998 82 72 41 95.008z"/>
            <path fill="#000" d="M0 23.994L41.005 0.987 41.005 3.01 0 26.006z" opacity=".4" transform="translate(41 68.977)"/>
            <path fill="#0C7B60" d="M0 45.995L41 22.998 41 72.121 0 95.008z" transform="matrix(-1 0 0 1 41 0)"/>
            <path fill="#FFF" d="M0 22.981L41 0 41 2.087 0 25.016z" opacity=".4" transform="matrix(-1 0 0 1 41 69.998)"/>
            <path fill="#0C5241" d="M0 22.998L41 0 82 22.998 41 45.995z" transform="matrix(-1 0 0 1 82 0)"/>
            <ellipse cx="41" cy="33.6" fill="#022C23" rx="9" ry="3.6"/>
            <path fill="#022C23" d="M32 30H50V34H32z"/>
            <ellipse cx="41" cy="11.6" fill="#022C23" rx="9" ry="3.6"/>
            <path fill="#022C23" d="M32 8H50V12H32z"/>
            <ellipse cx="21" cy="22.6" fill="#022C23" rx="9" ry="3.6"/>
            <path fill="#022C23" d="M12 19H30V23H12z"/>
            <ellipse cx="61" cy="22.6" fill="#022C23" rx="9" ry="3.6"/>
            <path fill="#022C23" d="M52 19H70V23H52z"/>
            <ellipse cx="41" cy="29.6" fill="#15A180" rx="9" ry="3.6"/>
            <path fill="#0C5241" d="M42.014 32.6c4.818-.155 9.016-.683 9.016-3.178 0-2.496-4.254-3.814-9.784-3.814-5.53 0-8.216 1.82-8.216 3.5 0 1.681 4.166 3.646 8.984 3.492z"/>
            <ellipse cx="41" cy="7.6" fill="#15A180" rx="9" ry="3.6"/>
            <path fill="#0C5241" d="M42.014 10.6c4.818-.155 9.016-.683 9.016-3.178 0-2.496-4.254-3.814-9.784-3.814-5.53 0-8.216 1.82-8.216 3.5 0 1.681 4.166 3.646 8.984 3.492z"/>
            <ellipse cx="21" cy="18.6" fill="#15A180" rx="9" ry="3.6"/>
            <path fill="#0C5241" d="M22.014 21.6c4.818-.155 9.016-.683 9.016-3.178 0-2.496-4.254-3.814-9.784-3.814-5.53 0-8.216 1.82-8.216 3.5 0 1.681 4.166 3.646 8.984 3.492z"/>
            <ellipse cx="61" cy="18.6" fill="#15A180" rx="9" ry="3.6"/>
            <path fill="#0C5241" d="M62.014 21.6c4.818-.155 9.016-.683 9.016-3.178 0-2.496-4.254-3.814-9.784-3.814-5.53 0-8.216 1.82-8.216 3.5 0 1.681 4.166 3.646 8.984 3.492z"/>
        </g>
        <g transform="translate(0 71)">
            <path fill="#0C9071" d="M41 45.995L82 22.998 82 72 41 95.008z"/>
            <path fill="#00B98D" d="M0 45.995L41 22.998 41 72.121 0 95.008z" transform="matrix(-1 0 0 1 41 0)"/>
            <path fill="#5CD6B9" d="M0 22.998L41 0 82 22.998 41 45.995z" transform="matrix(-1 0 0 1 82 0)"/>
            <ellipse cx="41" cy="33.6" fill="#0C5241" rx="9" ry="3.6"/>
            <path fill="#0C5241" d="M32 30H50V34H32z"/>
            <ellipse cx="41" cy="11.6" fill="#0C5241" rx="9" ry="3.6"/>
            <path fill="#0C5241" d="M32 8H50V12H32z"/>
            <ellipse cx="21" cy="22.6" fill="#0C5241" rx="9" ry="3.6"/>
            <path fill="#0C5241" d="M12 19H30V23H12z"/>
            <ellipse cx="61" cy="22.6" fill="#0C5241" rx="9" ry="3.6"/>
            <path fill="#0C5241" d="M52 19H70V23H52z"/>
            <ellipse cx="41" cy="29.6" fill="#C1F7EA" rx="9" ry="3.6"/>
            <path fill="#5CD6B9" d="M42.014 32.6c4.818-.155 9.016-.683 9.016-3.178 0-2.496-4.254-3.814-9.784-3.814-5.53 0-8.216 1.82-8.216 3.5 0 1.681 4.166 3.646 8.984 3.492z"/>
            <ellipse cx="41" cy="7.6" fill="#C1F7EA" rx="9" ry="3.6"/>
            <path fill="#5CD6B9" d="M42.014 10.6c4.818-.155 9.016-.683 9.016-3.178 0-2.496-4.254-3.814-9.784-3.814-5.53 0-8.216 1.82-8.216 3.5 0 1.681 4.166 3.646 8.984 3.492z"/>
            <ellipse cx="21" cy="18.6" fill="#C1F7EA" rx="9" ry="3.6"/>
            <path fill="#5CD6B9" d="M22.014 21.6c4.818-.155 9.016-.683 9.016-3.178 0-2.496-4.254-3.814-9.784-3.814-5.53 0-8.216 1.82-8.216 3.5 0 1.681 4.166 3.646 8.984 3.492z"/>
            <ellipse cx="61" cy="18.6" fill="#C1F7EA" rx="9" ry="3.6"/>
            <path fill="#5CD6B9" d="M62.014 21.6c4.818-.155 9.016-.683 9.016-3.178 0-2.496-4.254-3.814-9.784-3.814-5.53 0-8.216 1.82-8.216 3.5 0 1.681 4.166 3.646 8.984 3.492z"/>
            <path fill="#000" d="M0 23.994L41.005 0.987 41.005 3.01 0 26.006z" opacity=".4" transform="translate(41 68.977)"/>
            <path fill="#FFF" d="M0 22.981L41 0 41 2.087 0 25.016z" opacity=".4" transform="matrix(-1 0 0 1 41 69.998)"/>
        </g>
        <g transform="translate(39)">
            <path fill="#0C9071" d="M41 45.995L82 22.998 82 72 41 95.008z"/>
            <path fill="#00B98D" d="M0 45.995L41 22.998 41 72.121 0 95.008z" transform="matrix(-1 0 0 1 41 0)"/>
            <path fill="#5CD6B9" d="M0 22.998L41 0 82 22.998 41 45.995z" transform="matrix(-1 0 0 1 82 0)"/>
            <ellipse cx="41" cy="33.6" fill="#0C5241" rx="9" ry="3.6"/>
            <path fill="#0C5241" d="M32 30H50V34H32z"/>
            <ellipse cx="41" cy="11.6" fill="#0C5241" rx="9" ry="3.6"/>
            <path fill="#0C5241" d="M32 8H50V12H32z"/>
            <ellipse cx="21" cy="22.6" fill="#0C5241" rx="9" ry="3.6"/>
            <path fill="#0C5241" d="M12 19H30V23H12z"/>
            <ellipse cx="61" cy="22.6" fill="#0C5241" rx="9" ry="3.6"/>
            <path fill="#0C5241" d="M52 19H70V23H52z"/>
            <ellipse cx="41" cy="29.6" fill="#C1F7EA" rx="9" ry="3.6"/>
            <path fill="#5CD6B9" d="M42.014 32.6c4.818-.155 9.016-.683 9.016-3.178 0-2.496-4.254-3.814-9.784-3.814-5.53 0-8.216 1.82-8.216 3.5 0 1.681 4.166 3.646 8.984 3.492z"/>
            <ellipse cx="41" cy="7.6" fill="#C1F7EA" rx="9" ry="3.6"/>
            <path fill="#5CD6B9" d="M42.014 10.6c4.818-.155 9.016-.683 9.016-3.178 0-2.496-4.254-3.814-9.784-3.814-5.53 0-8.216 1.82-8.216 3.5 0 1.681 4.166 3.646 8.984 3.492z"/>
            <ellipse cx="21" cy="18.6" fill="#C1F7EA" rx="9" ry="3.6"/>
            <path fill="#5CD6B9" d="M22.014 21.6c4.818-.155 9.016-.683 9.016-3.178 0-2.496-4.254-3.814-9.784-3.814-5.53 0-8.216 1.82-8.216 3.5 0 1.681 4.166 3.646 8.984 3.492z"/>
            <ellipse cx="61" cy="18.6" fill="#C1F7EA" rx="9" ry="3.6"/>
            <path fill="#5CD6B9" d="M62.014 21.6c4.818-.155 9.016-.683 9.016-3.178 0-2.496-4.254-3.814-9.784-3.814-5.53 0-8.216 1.82-8.216 3.5 0 1.681 4.166 3.646 8.984 3.492z"/>
            <path fill="#000" d="M0 23.994L41.005 0.987 41.005 3.01 0 26.006z" opacity=".4" transform="translate(41 68.977)"/>
            <path fill="#FFF" d="M0 22.981L41 0 41 2.087 0 25.016z" opacity=".4" transform="matrix(-1 0 0 1 41 69.998)"/>
        </g>
        <g transform="translate(0 22)">
            <path fill="#0C9071" d="M41 45.995L82 22.998 82 72 41 95.008z"/>
            <path fill="#00B98D" d="M0 45.995L41 22.998 41 72.121 0 95.008z" transform="matrix(-1 0 0 1 41 0)"/>
            <path fill="#5CD6B9" d="M0 22.998L41 0 82 22.998 41 45.995z" transform="matrix(-1 0 0 1 82 0)"/>
            <ellipse cx="41" cy="33.6" fill="#0C5241" rx="9" ry="3.6"/>
            <path fill="#0C5241" d="M32 30H50V34H32z"/>
            <ellipse cx="41" cy="11.6" fill="#0C5241" rx="9" ry="3.6"/>
            <path fill="#0C5241" d="M32 8H50V12H32z"/>
            <ellipse cx="21" cy="22.6" fill="#0C5241" rx="9" ry="3.6"/>
            <path fill="#0C5241" d="M12 19H30V23H12z"/>
            <ellipse cx="61" cy="22.6" fill="#0C5241" rx="9" ry="3.6"/>
            <path fill="#0C5241" d="M52 19H70V23H52z"/>
            <ellipse cx="41" cy="29.6" fill="#C1F7EA" rx="9" ry="3.6"/>
            <path fill="#5CD6B9" d="M42.014 32.6c4.818-.155 9.016-.683 9.016-3.178 0-2.496-4.254-3.814-9.784-3.814-5.53 0-8.216 1.82-8.216 3.5 0 1.681 4.166 3.646 8.984 3.492z"/>
            <ellipse cx="41" cy="7.6" fill="#C1F7EA" rx="9" ry="3.6"/>
            <path fill="#5CD6B9" d="M42.014 10.6c4.818-.155 9.016-.683 9.016-3.178 0-2.496-4.254-3.814-9.784-3.814-5.53 0-8.216 1.82-8.216 3.5 0 1.681 4.166 3.646 8.984 3.492z"/>
            <ellipse cx="21" cy="18.6" fill="#C1F7EA" rx="9" ry="3.6"/>
            <path fill="#5CD6B9" d="M22.014 21.6c4.818-.155 9.016-.683 9.016-3.178 0-2.496-4.254-3.814-9.784-3.814-5.53 0-8.216 1.82-8.216 3.5 0 1.681 4.166 3.646 8.984 3.492z"/>
            <ellipse cx="61" cy="18.6" fill="#C1F7EA" rx="9" ry="3.6"/>
            <path fill="#5CD6B9" d="M62.014 21.6c4.818-.155 9.016-.683 9.016-3.178 0-2.496-4.254-3.814-9.784-3.814-5.53 0-8.216 1.82-8.216 3.5 0 1.681 4.166 3.646 8.984 3.492z"/>
            <path fill="#000" d="M0 23.994L41.005 0.987 41.005 3.01 0 26.006z" opacity=".4" transform="translate(41 68.977)"/>
            <path fill="#FFF" d="M0 22.981L41 0 41 2.087 0 25.016z" opacity=".4" transform="matrix(-1 0 0 1 41 69.998)"/>
        </g>
        <g>
            <g transform="translate(123 72) translate(41 145)">
                <path fill="#DABB1C" d="M41 45.995L82 22.998 82 72 41 95.121z"/>
                <path fill="#AA8612" d="M0 45.995L41 22.998 41 72.121 0 95.121z" transform="matrix(-1 0 0 1 41 0)"/>
                <path fill="#775D0A" d="M0 22.998L41 0 82 22.998 41 45.995z" transform="matrix(-1 0 0 1 82 0)"/>
                <ellipse cx="41" cy="33.6" fill="#4D3C06" rx="9" ry="3.6"/>
                <path fill="#4D3C06" d="M32 30H50V34H32z"/>
                <ellipse cx="41" cy="11.6" fill="#4D3C06" rx="9" ry="3.6"/>
                <path fill="#4D3C06" d="M32 8H50V12H32z"/>
                <ellipse cx="21" cy="22.6" fill="#4D3C06" rx="9" ry="3.6"/>
                <path fill="#4D3C06" d="M12 19H30V23H12z"/>
                <ellipse cx="61" cy="22.6" fill="#4D3C06" rx="9" ry="3.6"/>
                <path fill="#4D3C06" d="M52 19H70V23H52z"/>
                <ellipse cx="41" cy="29.6" fill="#AC9319" rx="9" ry="3.6"/>
                <path fill="#775D0A" d="M42.014 32.6c4.818-.155 9.016-.683 9.016-3.178 0-2.496-4.254-3.814-9.784-3.814-5.53 0-8.216 1.82-8.216 3.5 0 1.681 4.166 3.646 8.984 3.492z"/>
                <ellipse cx="41" cy="7.6" fill="#AC9319" rx="9" ry="3.6"/>
                <path fill="#775D0A" d="M42.014 10.6c4.818-.155 9.016-.683 9.016-3.178 0-2.496-4.254-3.814-9.784-3.814-5.53 0-8.216 1.82-8.216 3.5 0 1.681 4.166 3.646 8.984 3.492z"/>
                <ellipse cx="21" cy="18.6" fill="#AC9319" rx="9" ry="3.6"/>
                <path fill="#775D0A" d="M22.014 21.6c4.818-.155 9.016-.683 9.016-3.178 0-2.496-4.254-3.814-9.784-3.814-5.53 0-8.216 1.82-8.216 3.5 0 1.681 4.166 3.646 8.984 3.492z"/>
                <ellipse cx="61" cy="18.6" fill="#AC9319" rx="9" ry="3.6"/>
                <path fill="#775D0A" d="M62.014 21.6c4.818-.155 9.016-.683 9.016-3.178 0-2.496-4.254-3.814-9.784-3.814-5.53 0-8.216 1.82-8.216 3.5 0 1.681 4.166 3.646 8.984 3.492z"/>
            </g>
            <g transform="translate(123 72) translate(0 168)">
                <path fill="#DABB1C" d="M41 45.995L82 22.998 82 72 41 95.121z"/>
                <path fill="#FFE562" d="M0 45.995L41 22.998 41 72.121 0 95.121z" transform="matrix(-1 0 0 1 41 0)"/>
                <path fill="#FFF0BA" d="M0 22.998L41 0 82 22.998 41 45.995z" transform="matrix(-1 0 0 1 82 0)"/>
                <ellipse cx="41" cy="33.6" fill="#8B6C0C" rx="9" ry="3.6"/>
                <path fill="#8B6C0C" d="M32 30H50V34H32z"/>
                <ellipse cx="41" cy="11.6" fill="#8B6C0C" rx="9" ry="3.6"/>
                <path fill="#8B6C0C" d="M32 8H50V12H32z"/>
                <ellipse cx="21" cy="22.6" fill="#8B6C0C" rx="9" ry="3.6"/>
                <path fill="#8B6C0C" d="M12 19H30V23H12z"/>
                <ellipse cx="61" cy="22.6" fill="#8B6C0C" rx="9" ry="3.6"/>
                <path fill="#8B6C0C" d="M52 19H70V23H52z"/>
                <ellipse cx="41" cy="29.6" fill="#FFFEF8" rx="9" ry="3.6"/>
                <path fill="#FFF0BA" d="M42.014 32.6c4.818-.155 9.016-.683 9.016-3.178 0-2.496-4.254-3.814-9.784-3.814-5.53 0-8.216 1.82-8.216 3.5 0 1.681 4.166 3.646 8.984 3.492z"/>
                <ellipse cx="41" cy="7.6" fill="#FFFEF8" rx="9" ry="3.6"/>
                <path fill="#FFF0BA" d="M42.014 10.6c4.818-.155 9.016-.683 9.016-3.178 0-2.496-4.254-3.814-9.784-3.814-5.53 0-8.216 1.82-8.216 3.5 0 1.681 4.166 3.646 8.984 3.492z"/>
                <ellipse cx="21" cy="18.6" fill="#FFFEF8" rx="9" ry="3.6"/>
                <path fill="#FFF0BA" d="M22.014 21.6c4.818-.155 9.016-.683 9.016-3.178 0-2.496-4.254-3.814-9.784-3.814-5.53 0-8.216 1.82-8.216 3.5 0 1.681 4.166 3.646 8.984 3.492z"/>
                <ellipse cx="61" cy="18.6" fill="#FFFEF8" rx="9" ry="3.6"/>
                <path fill="#FFF0BA" d="M62.014 21.6c4.818-.155 9.016-.683 9.016-3.178 0-2.496-4.254-3.814-9.784-3.814-5.53 0-8.216 1.82-8.216 3.5 0 1.681 4.166 3.646 8.984 3.492z"/>
                <path fill="#FFF" d="M0 22.981L41 0 41 2.087 0 25.016z" opacity=".4" transform="matrix(-1 0 0 1 41 69.998)"/>
            </g>
            <g transform="translate(123 72) translate(62 84)">
                <path fill="#DABB1C" d="M41 45.995L82 22.998 82 72 41 95.121z"/>
                <path fill="#000" d="M0 23.994L41.005 0.987 41.005 3.01 0 26.006z" opacity=".4" transform="translate(41 68.977)"/>
                <path fill="#AA8612" d="M0 45.995L41 22.998 41 72.121 0 95.121z" transform="matrix(-1 0 0 1 41 0)"/>
                <path fill="#FFF" d="M0 22.981L41 0 41 2.087 0 25.016z" opacity=".4" transform="matrix(-1 0 0 1 41 69.998)"/>
                <path fill="#775D0A" d="M0 22.998L41 0 82 22.998 41 45.995z" transform="matrix(-1 0 0 1 82 0)"/>
                <ellipse cx="41" cy="33.6" fill="#4D3C06" rx="9" ry="3.6"/>
                <path fill="#4D3C06" d="M32 30H50V34H32z"/>
                <ellipse cx="41" cy="11.6" fill="#4D3C06" rx="9" ry="3.6"/>
                <path fill="#4D3C06" d="M32 8H50V12H32z"/>
                <ellipse cx="21" cy="22.6" fill="#4D3C06" rx="9" ry="3.6"/>
                <path fill="#4D3C06" d="M12 19H30V23H12z"/>
                <ellipse cx="61" cy="22.6" fill="#4D3C06" rx="9" ry="3.6"/>
                <path fill="#4D3C06" d="M52 19H70V23H52z"/>
                <ellipse cx="41" cy="29.6" fill="#AC9319" rx="9" ry="3.6"/>
                <path fill="#775D0A" d="M42.014 32.6c4.818-.155 9.016-.683 9.016-3.178 0-2.496-4.254-3.814-9.784-3.814-5.53 0-8.216 1.82-8.216 3.5 0 1.681 4.166 3.646 8.984 3.492z"/>
                <ellipse cx="41" cy="7.6" fill="#AC9319" rx="9" ry="3.6"/>
                <path fill="#775D0A" d="M42.014 10.6c4.818-.155 9.016-.683 9.016-3.178 0-2.496-4.254-3.814-9.784-3.814-5.53 0-8.216 1.82-8.216 3.5 0 1.681 4.166 3.646 8.984 3.492z"/>
                <ellipse cx="21" cy="18.6" fill="#AC9319" rx="9" ry="3.6"/>
                <path fill="#775D0A" d="M22.014 21.6c4.818-.155 9.016-.683 9.016-3.178 0-2.496-4.254-3.814-9.784-3.814-5.53 0-8.216 1.82-8.216 3.5 0 1.681 4.166 3.646 8.984 3.492z"/>
                <ellipse cx="61" cy="18.6" fill="#AC9319" rx="9" ry="3.6"/>
                <path fill="#775D0A" d="M62.014 21.6c4.818-.155 9.016-.683 9.016-3.178 0-2.496-4.254-3.814-9.784-3.814-5.53 0-8.216 1.82-8.216 3.5 0 1.681 4.166 3.646 8.984 3.492z"/>
            </g>
            <g transform="translate(123 72) translate(0 119)">
                <path fill="#DABB1C" d="M41 45.995L82 22.998 82 72 41 95.121z"/>
                <path fill="#FFE562" d="M0 45.995L41 22.998 41 72.121 0 95.121z" transform="matrix(-1 0 0 1 41 0)"/>
                <path fill="#FFF0BA" d="M0 22.998L41 0 82 22.998 41 45.995z" transform="matrix(-1 0 0 1 82 0)"/>
                <ellipse cx="41" cy="33.6" fill="#8B6C0C" rx="9" ry="3.6"/>
                <path fill="#8B6C0C" d="M32 30H50V34H32z"/>
                <ellipse cx="41" cy="11.6" fill="#8B6C0C" rx="9" ry="3.6"/>
                <path fill="#8B6C0C" d="M32 8H50V12H32z"/>
                <ellipse cx="21" cy="22.6" fill="#8B6C0C" rx="9" ry="3.6"/>
                <path fill="#8B6C0C" d="M12 19H30V23H12z"/>
                <ellipse cx="61" cy="22.6" fill="#8B6C0C" rx="9" ry="3.6"/>
                <path fill="#8B6C0C" d="M52 19H70V23H52z"/>
                <ellipse cx="41" cy="29.6" fill="#FFFEF8" rx="9" ry="3.6"/>
                <path fill="#FFF0BA" d="M42.014 32.6c4.818-.155 9.016-.683 9.016-3.178 0-2.496-4.254-3.814-9.784-3.814-5.53 0-8.216 1.82-8.216 3.5 0 1.681 4.166 3.646 8.984 3.492z"/>
                <ellipse cx="41" cy="7.6" fill="#FFFEF8" rx="9" ry="3.6"/>
                <path fill="#FFF0BA" d="M42.014 10.6c4.818-.155 9.016-.683 9.016-3.178 0-2.496-4.254-3.814-9.784-3.814-5.53 0-8.216 1.82-8.216 3.5 0 1.681 4.166 3.646 8.984 3.492z"/>
                <ellipse cx="21" cy="18.6" fill="#FFFEF8" rx="9" ry="3.6"/>
                <path fill="#FFF0BA" d="M22.014 21.6c4.818-.155 9.016-.683 9.016-3.178 0-2.496-4.254-3.814-9.784-3.814-5.53 0-8.216 1.82-8.216 3.5 0 1.681 4.166 3.646 8.984 3.492z"/>
                <ellipse cx="61" cy="18.6" fill="#FFFEF8" rx="9" ry="3.6"/>
                <path fill="#FFF0BA" d="M62.014 21.6c4.818-.155 9.016-.683 9.016-3.178 0-2.496-4.254-3.814-9.784-3.814-5.53 0-8.216 1.82-8.216 3.5 0 1.681 4.166 3.646 8.984 3.492z"/>
                <path fill="#000" d="M0 23.994L41.005 0.987 41.005 3.01 0 26.006z" opacity=".4" transform="translate(41 68.977)"/>
                <path fill="#FFF" d="M0 22.981L41 0 41 2.087 0 25.016z" opacity=".4" transform="matrix(-1 0 0 1 41 69.998)"/>
            </g>
            <g transform="translate(123 72) translate(62 37)">
                <path fill="#DABB1C" d="M41 45.995L82 22.998 82 72 41 95.121z"/>
                <path fill="#000" d="M0 23.994L41.005 0.987 41.005 3.01 0 26.006z" opacity=".4" transform="translate(41 68.977)"/>
                <path fill="#AA8612" d="M0 45.995L41 22.998 41 72.121 0 95.121z" transform="matrix(-1 0 0 1 41 0)"/>
                <path fill="#FFF" d="M0 22.981L41 0 41 2.087 0 25.016z" opacity=".4" transform="matrix(-1 0 0 1 41 69.998)"/>
                <path fill="#775D0A" d="M0 22.998L41 0 82 22.998 41 45.995z" transform="matrix(-1 0 0 1 82 0)"/>
                <ellipse cx="41" cy="33.6" fill="#4D3C06" rx="9" ry="3.6"/>
                <path fill="#4D3C06" d="M32 30H50V34H32z"/>
                <ellipse cx="41" cy="11.6" fill="#4D3C06" rx="9" ry="3.6"/>
                <path fill="#4D3C06" d="M32 8H50V12H32z"/>
                <ellipse cx="21" cy="22.6" fill="#4D3C06" rx="9" ry="3.6"/>
                <path fill="#4D3C06" d="M12 19H30V23H12z"/>
                <ellipse cx="61" cy="22.6" fill="#4D3C06" rx="9" ry="3.6"/>
                <path fill="#4D3C06" d="M52 19H70V23H52z"/>
                <ellipse cx="41" cy="29.6" fill="#AC9319" rx="9" ry="3.6"/>
                <path fill="#775D0A" d="M42.014 32.6c4.818-.155 9.016-.683 9.016-3.178 0-2.496-4.254-3.814-9.784-3.814-5.53 0-8.216 1.82-8.216 3.5 0 1.681 4.166 3.646 8.984 3.492z"/>
                <ellipse cx="41" cy="7.6" fill="#AC9319" rx="9" ry="3.6"/>
                <path fill="#775D0A" d="M42.014 10.6c4.818-.155 9.016-.683 9.016-3.178 0-2.496-4.254-3.814-9.784-3.814-5.53 0-8.216 1.82-8.216 3.5 0 1.681 4.166 3.646 8.984 3.492z"/>
                <ellipse cx="21" cy="18.6" fill="#AC9319" rx="9" ry="3.6"/>
                <path fill="#775D0A" d="M22.014 21.6c4.818-.155 9.016-.683 9.016-3.178 0-2.496-4.254-3.814-9.784-3.814-5.53 0-8.216 1.82-8.216 3.5 0 1.681 4.166 3.646 8.984 3.492z"/>
                <ellipse cx="61" cy="18.6" fill="#AC9319" rx="9" ry="3.6"/>
                <path fill="#775D0A" d="M62.014 21.6c4.818-.155 9.016-.683 9.016-3.178 0-2.496-4.254-3.814-9.784-3.814-5.53 0-8.216 1.82-8.216 3.5 0 1.681 4.166 3.646 8.984 3.492z"/>
            </g>
            <g transform="translate(123 72) translate(0 71)">
                <path fill="#DABB1C" d="M41 45.995L82 22.998 82 72 41 95.121z"/>
                <path fill="#FFE562" d="M0 45.995L41 22.998 41 72.121 0 95.121z" transform="matrix(-1 0 0 1 41 0)"/>
                <path fill="#FFF0BA" d="M0 22.998L41 0 82 22.998 41 45.995z" transform="matrix(-1 0 0 1 82 0)"/>
                <ellipse cx="41" cy="33.6" fill="#8B6C0C" rx="9" ry="3.6"/>
                <path fill="#8B6C0C" d="M32 30H50V34H32z"/>
                <ellipse cx="41" cy="11.6" fill="#8B6C0C" rx="9" ry="3.6"/>
                <path fill="#8B6C0C" d="M32 8H50V12H32z"/>
                <ellipse cx="21" cy="22.6" fill="#8B6C0C" rx="9" ry="3.6"/>
                <path fill="#8B6C0C" d="M12 19H30V23H12z"/>
                <ellipse cx="61" cy="22.6" fill="#8B6C0C" rx="9" ry="3.6"/>
                <path fill="#8B6C0C" d="M52 19H70V23H52z"/>
                <ellipse cx="41" cy="29.6" fill="#FFFEF8" rx="9" ry="3.6"/>
                <path fill="#FFF0BA" d="M42.014 32.6c4.818-.155 9.016-.683 9.016-3.178 0-2.496-4.254-3.814-9.784-3.814-5.53 0-8.216 1.82-8.216 3.5 0 1.681 4.166 3.646 8.984 3.492z"/>
                <ellipse cx="41" cy="7.6" fill="#FFFEF8" rx="9" ry="3.6"/>
                <path fill="#FFF0BA" d="M42.014 10.6c4.818-.155 9.016-.683 9.016-3.178 0-2.496-4.254-3.814-9.784-3.814-5.53 0-8.216 1.82-8.216 3.5 0 1.681 4.166 3.646 8.984 3.492z"/>
                <ellipse cx="21" cy="18.6" fill="#FFFEF8" rx="9" ry="3.6"/>
                <path fill="#FFF0BA" d="M22.014 21.6c4.818-.155 9.016-.683 9.016-3.178 0-2.496-4.254-3.814-9.784-3.814-5.53 0-8.216 1.82-8.216 3.5 0 1.681 4.166 3.646 8.984 3.492z"/>
                <ellipse cx="61" cy="18.6" fill="#FFFEF8" rx="9" ry="3.6"/>
                <path fill="#FFF0BA" d="M62.014 21.6c4.818-.155 9.016-.683 9.016-3.178 0-2.496-4.254-3.814-9.784-3.814-5.53 0-8.216 1.82-8.216 3.5 0 1.681 4.166 3.646 8.984 3.492z"/>
                <path fill="#000" d="M0 23.994L41.005 0.987 41.005 3.01 0 26.006z" opacity=".4" transform="translate(41 68.977)"/>
                <path fill="#FFF" d="M0 22.981L41 0 41 2.087 0 25.016z" opacity=".4" transform="matrix(-1 0 0 1 41 69.998)"/>
            </g>
            <g transform="translate(123 72) translate(41)">
                <path fill="#DABB1C" d="M41 45.995L82 22.998 82 72 41 95.121z"/>
                <path fill="#FFE562" d="M0 45.995L41 22.998 41 72.121 0 95.121z" transform="matrix(-1 0 0 1 41 0)"/>
                <path fill="#FFF0BA" d="M0 22.998L41 0 82 22.998 41 45.995z" transform="matrix(-1 0 0 1 82 0)"/>
                <ellipse cx="41" cy="33.6" fill="#8B6C0C" rx="9" ry="3.6"/>
                <path fill="#8B6C0C" d="M32 30H50V34H32z"/>
                <ellipse cx="41" cy="11.6" fill="#8B6C0C" rx="9" ry="3.6"/>
                <path fill="#8B6C0C" d="M32 8H50V12H32z"/>
                <ellipse cx="21" cy="22.6" fill="#8B6C0C" rx="9" ry="3.6"/>
                <path fill="#8B6C0C" d="M12 19H30V23H12z"/>
                <ellipse cx="61" cy="22.6" fill="#8B6C0C" rx="9" ry="3.6"/>
                <path fill="#8B6C0C" d="M52 19H70V23H52z"/>
                <ellipse cx="41" cy="29.6" fill="#FFFEF8" rx="9" ry="3.6"/>
                <path fill="#FFF0BA" d="M42.014 32.6c4.818-.155 9.016-.683 9.016-3.178 0-2.496-4.254-3.814-9.784-3.814-5.53 0-8.216 1.82-8.216 3.5 0 1.681 4.166 3.646 8.984 3.492z"/>
                <ellipse cx="41" cy="7.6" fill="#FFFEF8" rx="9" ry="3.6"/>
                <path fill="#FFF0BA" d="M42.014 10.6c4.818-.155 9.016-.683 9.016-3.178 0-2.496-4.254-3.814-9.784-3.814-5.53 0-8.216 1.82-8.216 3.5 0 1.681 4.166 3.646 8.984 3.492z"/>
                <ellipse cx="21" cy="18.6" fill="#FFFEF8" rx="9" ry="3.6"/>
                <path fill="#FFF0BA" d="M22.014 21.6c4.818-.155 9.016-.683 9.016-3.178 0-2.496-4.254-3.814-9.784-3.814-5.53 0-8.216 1.82-8.216 3.5 0 1.681 4.166 3.646 8.984 3.492z"/>
                <ellipse cx="61" cy="18.6" fill="#FFFEF8" rx="9" ry="3.6"/>
                <path fill="#FFF0BA" d="M62.014 21.6c4.818-.155 9.016-.683 9.016-3.178 0-2.496-4.254-3.814-9.784-3.814-5.53 0-8.216 1.82-8.216 3.5 0 1.681 4.166 3.646 8.984 3.492z"/>
                <path fill="#000" d="M0 23.994L41.005 0.987 41.005 3.01 0 26.006z" opacity=".4" transform="translate(41 68.977)"/>
                <path fill="#FFF" d="M0 22.981L41 0 41 2.087 0 25.016z" opacity=".4" transform="matrix(-1 0 0 1 41 69.998)"/>
            </g>
            <g transform="translate(123 72) translate(0 23)">
                <path fill="#DABB1C" d="M41 45.995L82 22.998 82 72 41 95.121z"/>
                <path fill="#FFE562" d="M0 45.995L41 22.998 41 72.121 0 95.121z" transform="matrix(-1 0 0 1 41 0)"/>
                <path fill="#FFF0BA" d="M0 22.998L41 0 82 22.998 41 45.995z" transform="matrix(-1 0 0 1 82 0)"/>
                <ellipse cx="41" cy="33.6" fill="#8B6C0C" rx="9" ry="3.6"/>
                <path fill="#8B6C0C" d="M32 30H50V34H32z"/>
                <ellipse cx="41" cy="11.6" fill="#8B6C0C" rx="9" ry="3.6"/>
                <path fill="#8B6C0C" d="M32 8H50V12H32z"/>
                <ellipse cx="21" cy="22.6" fill="#8B6C0C" rx="9" ry="3.6"/>
                <path fill="#8B6C0C" d="M12 19H30V23H12z"/>
                <ellipse cx="61" cy="22.6" fill="#8B6C0C" rx="9" ry="3.6"/>
                <path fill="#8B6C0C" d="M52 19H70V23H52z"/>
                <ellipse cx="41" cy="29.6" fill="#FFFEF8" rx="9" ry="3.6"/>
                <path fill="#FFF0BA" d="M42.014 32.6c4.818-.155 9.016-.683 9.016-3.178 0-2.496-4.254-3.814-9.784-3.814-5.53 0-8.216 1.82-8.216 3.5 0 1.681 4.166 3.646 8.984 3.492z"/>
                <ellipse cx="41" cy="7.6" fill="#FFFEF8" rx="9" ry="3.6"/>
                <path fill="#FFF0BA" d="M42.014 10.6c4.818-.155 9.016-.683 9.016-3.178 0-2.496-4.254-3.814-9.784-3.814-5.53 0-8.216 1.82-8.216 3.5 0 1.681 4.166 3.646 8.984 3.492z"/>
                <ellipse cx="21" cy="18.6" fill="#FFFEF8" rx="9" ry="3.6"/>
                <path fill="#FFF0BA" d="M22.014 21.6c4.818-.155 9.016-.683 9.016-3.178 0-2.496-4.254-3.814-9.784-3.814-5.53 0-8.216 1.82-8.216 3.5 0 1.681 4.166 3.646 8.984 3.492z"/>
                <ellipse cx="61" cy="18.6" fill="#FFFEF8" rx="9" ry="3.6"/>
                <path fill="#FFF0BA" d="M62.014 21.6c4.818-.155 9.016-.683 9.016-3.178 0-2.496-4.254-3.814-9.784-3.814-5.53 0-8.216 1.82-8.216 3.5 0 1.681 4.166 3.646 8.984 3.492z"/>
                <path fill="#000" d="M0 23.994L41.005 0.987 41.005 3.01 0 26.006z" opacity=".4" transform="translate(41 68.977)"/>
                <path fill="#FFF" d="M0 22.981L41 0 41 2.087 0 25.016z" opacity=".4" transform="matrix(-1 0 0 1 41 69.998)"/>
            </g>
        </g>
        <g transform="translate(0 165)">
            <g transform="translate(82 98)">
                <path fill="#6C0DBC" d="M41 45.995L82 22.998 82 72 41 95.009z"/>
                <path fill="#540F8D" d="M0 45.995L41 22.998 41 72.121 0 95.009z" transform="matrix(-1 0 0 1 41 0)"/>
                <path fill="#420B6F" d="M0 22.998L41 0 82 22.998 41 45.995z" transform="matrix(-1 0 0 1 82 0)"/>
                <ellipse cx="41" cy="33.6" fill="#23043D" rx="9" ry="3.6"/>
                <path fill="#37095E" d="M32 30H50V34H32z"/>
                <ellipse cx="41" cy="11.6" fill="#23043D" rx="9" ry="3.6"/>
                <path fill="#23043D" d="M32 8H50V12H32z"/>
                <ellipse cx="21" cy="22.6" fill="#23043D" rx="9" ry="3.6"/>
                <path fill="#23043D" d="M12 19H30V23H12z"/>
                <ellipse cx="61" cy="22.6" fill="#23043D" rx="9" ry="3.6"/>
                <path fill="#23043D" d="M52 19H70V23H52z"/>
                <ellipse cx="41" cy="29.6" fill="#8213E0" rx="9" ry="3.6"/>
                <path fill="#420B6F" d="M42.014 32.6c4.818-.155 9.016-.683 9.016-3.178 0-2.496-4.254-3.814-9.784-3.814-5.53 0-8.216 1.82-8.216 3.5 0 1.681 4.166 3.646 8.984 3.492z"/>
                <ellipse cx="41" cy="7.6" fill="#8213E0" rx="9" ry="3.6"/>
                <path fill="#420B6F" d="M42.014 10.6c4.818-.155 9.016-.683 9.016-3.178 0-2.496-4.254-3.814-9.784-3.814-5.53 0-8.216 1.82-8.216 3.5 0 1.681 4.166 3.646 8.984 3.492z"/>
                <ellipse cx="21" cy="18.6" fill="#8213E0" rx="9" ry="3.6"/>
                <path fill="#420B6F" d="M22.014 21.6c4.818-.155 9.016-.683 9.016-3.178 0-2.496-4.254-3.814-9.784-3.814-5.53 0-8.216 1.82-8.216 3.5 0 1.681 4.166 3.646 8.984 3.492z"/>
                <ellipse cx="61" cy="18.6" fill="#8213E0" rx="9" ry="3.6"/>
                <path fill="#420B6F" d="M62.014 21.6c4.818-.155 9.016-.683 9.016-3.178 0-2.496-4.254-3.814-9.784-3.814-5.53 0-8.216 1.82-8.216 3.5 0 1.681 4.166 3.646 8.984 3.492z"/>
            </g>
            <g transform="translate(41 121)">
                <path fill="#6C0DBC" d="M41 45.995L82 22.998 82 72 41 95.009z"/>
                <path fill="#540F8D" d="M0 45.995L41 22.998 41 72.121 0 95.009z" transform="matrix(-1 0 0 1 41 0)"/>
                <path fill="#420B6F" d="M0 22.998L41 0 82 22.998 41 45.995z" transform="matrix(-1 0 0 1 82 0)"/>
                <ellipse cx="41" cy="33.6" fill="#23043D" rx="9" ry="3.6"/>
                <path fill="#37095E" d="M32 30H50V34H32z"/>
                <ellipse cx="41" cy="11.6" fill="#23043D" rx="9" ry="3.6"/>
                <path fill="#23043D" d="M32 8H50V12H32z"/>
                <ellipse cx="21" cy="22.6" fill="#23043D" rx="9" ry="3.6"/>
                <path fill="#23043D" d="M12 19H30V23H12z"/>
                <ellipse cx="61" cy="22.6" fill="#23043D" rx="9" ry="3.6"/>
                <path fill="#23043D" d="M52 19H70V23H52z"/>
                <ellipse cx="41" cy="29.6" fill="#8213E0" rx="9" ry="3.6"/>
                <path fill="#420B6F" d="M42.014 32.6c4.818-.155 9.016-.683 9.016-3.178 0-2.496-4.254-3.814-9.784-3.814-5.53 0-8.216 1.82-8.216 3.5 0 1.681 4.166 3.646 8.984 3.492z"/>
                <ellipse cx="41" cy="7.6" fill="#8213E0" rx="9" ry="3.6"/>
                <path fill="#420B6F" d="M42.014 10.6c4.818-.155 9.016-.683 9.016-3.178 0-2.496-4.254-3.814-9.784-3.814-5.53 0-8.216 1.82-8.216 3.5 0 1.681 4.166 3.646 8.984 3.492z"/>
                <ellipse cx="21" cy="18.6" fill="#8213E0" rx="9" ry="3.6"/>
                <path fill="#420B6F" d="M22.014 21.6c4.818-.155 9.016-.683 9.016-3.178 0-2.496-4.254-3.814-9.784-3.814-5.53 0-8.216 1.82-8.216 3.5 0 1.681 4.166 3.646 8.984 3.492z"/>
                <ellipse cx="61" cy="18.6" fill="#8213E0" rx="9" ry="3.6"/>
                <path fill="#420B6F" d="M62.014 21.6c4.818-.155 9.016-.683 9.016-3.178 0-2.496-4.254-3.814-9.784-3.814-5.53 0-8.216 1.82-8.216 3.5 0 1.681 4.166 3.646 8.984 3.492z"/>
            </g>
            <g transform="translate(0 144)">
                <path fill="#6C0DBC" d="M41 45.995L82 22.998 82 72 41 95.004z"/>
                <path fill="#972DF0" d="M0 45.995L41 22.998 41 72.121 0 95.004z" transform="matrix(-1 0 0 1 41 0)"/>
                <path fill="#B469F3" d="M0 22.998L41 0 82 22.998 41 45.995z" transform="matrix(-1 0 0 1 82 0)"/>
                <ellipse cx="41" cy="33.6" fill="#561091" rx="9" ry="3.6"/>
                <path fill="#561091" d="M32 30H50V34H32z"/>
                <ellipse cx="41" cy="11.6" fill="#561091" rx="9" ry="3.6"/>
                <path fill="#561091" d="M32 8H50V12H32z"/>
                <ellipse cx="21" cy="22.6" fill="#561091" rx="9" ry="3.6"/>
                <path fill="#561091" d="M12 19H30V23H12z"/>
                <ellipse cx="61" cy="22.6" fill="#561091" rx="9" ry="3.6"/>
                <path fill="#561091" d="M52 19H70V23H52z"/>
                <ellipse cx="41" cy="29.6" fill="#E2C1FE" rx="9" ry="3.6"/>
                <path fill="#B469F3" d="M42.014 32.6c4.818-.155 9.016-.683 9.016-3.178 0-2.496-4.254-3.814-9.784-3.814-5.53 0-8.216 1.82-8.216 3.5 0 1.681 4.166 3.646 8.984 3.492z"/>
                <ellipse cx="41" cy="7.6" fill="#E3C7FC" rx="9" ry="3.6"/>
                <path fill="#B469F3" d="M42.014 10.6c4.818-.155 9.016-.683 9.016-3.178 0-2.496-4.254-3.814-9.784-3.814-5.53 0-8.216 1.82-8.216 3.5 0 1.681 4.166 3.646 8.984 3.492z"/>
                <ellipse cx="21" cy="18.6" fill="#E3C7FC" rx="9" ry="3.6"/>
                <path fill="#B469F3" d="M22.014 21.6c4.818-.155 9.016-.683 9.016-3.178 0-2.496-4.254-3.814-9.784-3.814-5.53 0-8.216 1.82-8.216 3.5 0 1.681 4.166 3.646 8.984 3.492z"/>
                <ellipse cx="61" cy="18.6" fill="#E3C7FC" rx="9" ry="3.6"/>
                <path fill="#B469F3" d="M62.014 21.6c4.818-.155 9.016-.683 9.016-3.178 0-2.496-4.254-3.814-9.784-3.814-5.53 0-8.216 1.82-8.216 3.5 0 1.681 4.166 3.646 8.984 3.492z"/>
            </g>
            <g transform="translate(0 96)">
                <path fill="#6C0DBC" d="M41 45.995L82 22.998 82 72 41 95.004z"/>
                <path fill="#972DF0" d="M0 45.995L41 22.998 41 72.121 0 95.004z" transform="matrix(-1 0 0 1 41 0)"/>
                <path fill="#B469F3" d="M0 22.998L41 0 82 22.998 41 45.995z" transform="matrix(-1 0 0 1 82 0)"/>
                <ellipse cx="41" cy="33.6" fill="#561091" rx="9" ry="3.6"/>
                <path fill="#561091" d="M32 30H50V34H32z"/>
                <ellipse cx="41" cy="11.6" fill="#561091" rx="9" ry="3.6"/>
                <path fill="#561091" d="M32 8H50V12H32z"/>
                <ellipse cx="21" cy="22.6" fill="#561091" rx="9" ry="3.6"/>
                <path fill="#561091" d="M12 19H30V23H12z"/>
                <ellipse cx="61" cy="22.6" fill="#561091" rx="9" ry="3.6"/>
                <path fill="#561091" d="M52 19H70V23H52z"/>
                <ellipse cx="41" cy="29.6" fill="#E2C1FE" rx="9" ry="3.6"/>
                <path fill="#B469F3" d="M42.014 32.6c4.818-.155 9.016-.683 9.016-3.178 0-2.496-4.254-3.814-9.784-3.814-5.53 0-8.216 1.82-8.216 3.5 0 1.681 4.166 3.646 8.984 3.492z"/>
                <ellipse cx="41" cy="7.6" fill="#E3C7FC" rx="9" ry="3.6"/>
                <path fill="#B469F3" d="M42.014 10.6c4.818-.155 9.016-.683 9.016-3.178 0-2.496-4.254-3.814-9.784-3.814-5.53 0-8.216 1.82-8.216 3.5 0 1.681 4.166 3.646 8.984 3.492z"/>
                <ellipse cx="21" cy="18.6" fill="#E3C7FC" rx="9" ry="3.6"/>
                <path fill="#B469F3" d="M22.014 21.6c4.818-.155 9.016-.683 9.016-3.178 0-2.496-4.254-3.814-9.784-3.814-5.53 0-8.216 1.82-8.216 3.5 0 1.681 4.166 3.646 8.984 3.492z"/>
                <ellipse cx="61" cy="18.6" fill="#E3C7FC" rx="9" ry="3.6"/>
                <path fill="#B469F3" d="M62.014 21.6c4.818-.155 9.016-.683 9.016-3.178 0-2.496-4.254-3.814-9.784-3.814-5.53 0-8.216 1.82-8.216 3.5 0 1.681 4.166 3.646 8.984 3.492z"/>
                <path fill="#000" d="M0 23.994L41.005 0.987 41.005 3.01 0 26.006z" opacity=".4" transform="translate(41 68.977)"/>
                <path fill="#FFF" d="M0 22.981L41 0 41 2.087 0 25.016z" opacity=".4" transform="matrix(-1 0 0 1 41 69.998)"/>
            </g>
            <g transform="translate(0 48)">
                <path fill="#6C0DBC" d="M41 45.995L82 22.998 82 72 41 95.004z"/>
                <path fill="#972DF0" d="M0 45.995L41 22.998 41 72.121 0 95.004z" transform="matrix(-1 0 0 1 41 0)"/>
                <path fill="#B469F3" d="M0 22.998L41 0 82 22.998 41 45.995z" transform="matrix(-1 0 0 1 82 0)"/>
                <ellipse cx="41" cy="33.6" fill="#561091" rx="9" ry="3.6"/>
                <path fill="#561091" d="M32 30H50V34H32z"/>
                <ellipse cx="41" cy="11.6" fill="#561091" rx="9" ry="3.6"/>
                <path fill="#561091" d="M32 8H50V12H32z"/>
                <ellipse cx="21" cy="22.6" fill="#561091" rx="9" ry="3.6"/>
                <path fill="#561091" d="M12 19H30V23H12z"/>
                <ellipse cx="61" cy="22.6" fill="#561091" rx="9" ry="3.6"/>
                <path fill="#561091" d="M52 19H70V23H52z"/>
                <ellipse cx="41" cy="29.6" fill="#E2C1FE" rx="9" ry="3.6"/>
                <path fill="#B469F3" d="M42.014 32.6c4.818-.155 9.016-.683 9.016-3.178 0-2.496-4.254-3.814-9.784-3.814-5.53 0-8.216 1.82-8.216 3.5 0 1.681 4.166 3.646 8.984 3.492z"/>
                <ellipse cx="41" cy="7.6" fill="#E3C7FC" rx="9" ry="3.6"/>
                <path fill="#B469F3" d="M42.014 10.6c4.818-.155 9.016-.683 9.016-3.178 0-2.496-4.254-3.814-9.784-3.814-5.53 0-8.216 1.82-8.216 3.5 0 1.681 4.166 3.646 8.984 3.492z"/>
                <ellipse cx="21" cy="18.6" fill="#E3C7FC" rx="9" ry="3.6"/>
                <path fill="#B469F3" d="M22.014 21.6c4.818-.155 9.016-.683 9.016-3.178 0-2.496-4.254-3.814-9.784-3.814-5.53 0-8.216 1.82-8.216 3.5 0 1.681 4.166 3.646 8.984 3.492z"/>
                <ellipse cx="61" cy="18.6" fill="#E3C7FC" rx="9" ry="3.6"/>
                <path fill="#B469F3" d="M62.014 21.6c4.818-.155 9.016-.683 9.016-3.178 0-2.496-4.254-3.814-9.784-3.814-5.53 0-8.216 1.82-8.216 3.5 0 1.681 4.166 3.646 8.984 3.492z"/>
                <path fill="#000" d="M0 23.994L41.005 0.987 41.005 3.01 0 26.006z" opacity=".4" transform="translate(41 68.977)"/>
                <path fill="#FFF" d="M0 22.981L41 0 41 2.087 0 25.016z" opacity=".4" transform="matrix(-1 0 0 1 41 69.998)"/>
            </g>
            <path fill="#6C0DBC" d="M41 45.995L82 22.998 82 72 41 95.004z"/>
            <path fill="#972DF0" d="M0 45.995L41 22.998 41 72.121 0 95.004z" transform="matrix(-1 0 0 1 41 0)"/>
            <path fill="#B469F3" d="M0 22.998L41 0 82 22.998 41 45.995z" transform="matrix(-1 0 0 1 82 0)"/>
            <ellipse cx="41" cy="33.6" fill="#561091" rx="9" ry="3.6"/>
            <path fill="#561091" d="M32 30H50V34H32z"/>
            <ellipse cx="41" cy="11.6" fill="#561091" rx="9" ry="3.6"/>
            <path fill="#561091" d="M32 8H50V12H32z"/>
            <ellipse cx="21" cy="22.6" fill="#561091" rx="9" ry="3.6"/>
            <path fill="#561091" d="M12 19H30V23H12z"/>
            <ellipse cx="61" cy="22.6" fill="#561091" rx="9" ry="3.6"/>
            <path fill="#561091" d="M52 19H70V23H52z"/>
            <ellipse cx="41" cy="29.6" fill="#E2C1FE" rx="9" ry="3.6"/>
            <path fill="#B469F3" d="M42.014 32.6c4.818-.155 9.016-.683 9.016-3.178 0-2.496-4.254-3.814-9.784-3.814-5.53 0-8.216 1.82-8.216 3.5 0 1.681 4.166 3.646 8.984 3.492z"/>
            <ellipse cx="41" cy="7.6" fill="#E3C7FC" rx="9" ry="3.6"/>
            <path fill="#B469F3" d="M42.014 10.6c4.818-.155 9.016-.683 9.016-3.178 0-2.496-4.254-3.814-9.784-3.814-5.53 0-8.216 1.82-8.216 3.5 0 1.681 4.166 3.646 8.984 3.492z"/>
            <ellipse cx="21" cy="18.6" fill="#E3C7FC" rx="9" ry="3.6"/>
            <path fill="#B469F3" d="M22.014 21.6c4.818-.155 9.016-.683 9.016-3.178 0-2.496-4.254-3.814-9.784-3.814-5.53 0-8.216 1.82-8.216 3.5 0 1.681 4.166 3.646 8.984 3.492z"/>
            <ellipse cx="61" cy="18.6" fill="#E3C7FC" rx="9" ry="3.6"/>
            <path fill="#B469F3" d="M62.014 21.6c4.818-.155 9.016-.683 9.016-3.178 0-2.496-4.254-3.814-9.784-3.814-5.53 0-8.216 1.82-8.216 3.5 0 1.681 4.166 3.646 8.984 3.492z"/>
            <path fill="#000" d="M0 23.994L41.005 0.987 41.005 3.01 0 26.006z" opacity=".4" transform="translate(41 68.977)"/>
            <path fill="#FFF" d="M0 22.981L41 0 41 2.087 0 25.016z" opacity=".4" transform="matrix(-1 0 0 1 41 69.998)"/>
        </g>
    </g>
</svg>
