<svg xmlns="http://www.w3.org/2000/svg" width="23" height="24" viewBox="0 0 23 24">
    <g fill="none" fill-rule="evenodd" transform="translate(1.5 1)">
        <rect width="17" height="19" x="3" fill="#FFF" rx="1"/>
        <rect width="17" height="19" y="3" fill="#FFF" stroke="#1C0332" stroke-width="1.5" rx="1"/>
        <g fill="#1C0332">
            <path d="M2.371 2.463c.331-.392.7-.768 1.109-1.128l.472-.064C4.39.855 4.843.611 5.315.54c.787-.12 1.71.243 1.95.653.216.37-.18-.016-1.07.48-.259.144-.8.46-1.01.791-.122.192-.163.369-.123.53l-1.11 1.135c-.341.077-.545.276-.61.595-.119.217-.855.978-1.06.954-.184 0-1.547-1.37-1.4-1.55 0-.172.348-.516.882-1.024.144-.137.145.028.374-.205.228-.234.116-.313.233-.435z" transform="translate(1 6.5)"/>
            <path d="M4.224 4.08l1.063-1.038 6.803 6.54c.408.391.43 1.037.048 1.455-.35.383-.943.41-1.327.061-.018-.016-.035-.034-.052-.052L4.224 4.08z" transform="translate(1 6.5)"/>
            <path d="M10.386 4.468l-.95-.9-6.713 6.254c-.411.384-.438 1.028-.058 1.444.348.382.94.41 1.323.06.018-.016.036-.034.054-.053l6.344-6.805zM10.999 1.161L13.129 3.28 11.494 5.032 9.258 2.846z" transform="translate(1 6.5)"/>
            <path d="M8.64 1.804L9.968.475c.241-.241.633-.242.874 0l.035.037c.245.289.224.717-.046.981L9.628 2.666c-.263.257-.68.269-.957.027-.253-.22-.28-.605-.058-.859l.028-.03zM11.412 4.565l1.327-1.33c.241-.241.632-.241.874 0l.035.037c.244.289.224.717-.047.982L12.4 5.427c-.263.256-.68.268-.957.026-.253-.22-.28-.605-.058-.859l.027-.03z" transform="translate(1 6.5)"/>
        </g>
    </g>
</svg>
