<svg xmlns="http://www.w3.org/2000/svg" width="14" height="13" viewBox="0 0 14 13">
    <g fill="#FFF" fill-rule="evenodd">
        <path d="M1.5 2.947c.331-.392.7-.768 1.109-1.128l.472-.064c.437-.416.891-.66 1.363-.732.787-.12 1.71.243 1.95.653.216.37-.18-.016-1.07.48-.259.144-.8.46-1.01.791-.122.192-.163.369-.123.53L3.08 4.612c-.341.078-.545.276-.61.596-.119.216-.855.978-1.06.954-.184 0-1.547-1.37-1.4-1.55 0-.172.348-.516.882-1.024.144-.137.145.028.374-.205.228-.234.116-.313.233-.435z"/>
        <path d="M3.353 4.564l1.063-1.038 6.803 6.54c.408.391.43 1.037.048 1.454-.35.384-.943.411-1.327.062l-.052-.052-6.535-6.966z"/>
        <path d="M9.515 4.951l-.95-.9-6.713 6.255c-.411.384-.438 1.028-.058 1.444.348.382.94.41 1.323.06.018-.016.036-.034.054-.053l6.344-6.806zM10.128 1.645L12.258 3.764 10.623 5.516 8.387 3.33z"/>
        <path d="M7.77 2.288L9.096.96c.241-.241.633-.242.874 0 .012.011.024.024.035.037.245.289.225.717-.046.981L8.757 3.15c-.263.257-.68.269-.957.027-.253-.221-.28-.606-.058-.859l.028-.03zM10.541 5.048l1.327-1.329c.241-.241.632-.242.874 0l.035.037c.244.289.224.717-.047.982L11.53 5.91c-.263.257-.68.269-.957.027-.253-.22-.28-.605-.058-.859l.027-.03z"/>
    </g>
</svg>
