<svg xmlns="http://www.w3.org/2000/svg" width="22" height="23" viewBox="0 0 22 23">
    <g fill="none" fill-rule="evenodd">
        <circle cx="8.5" cy="8.5" r="8.5" stroke="#1C0332" stroke-width="2"/>
        <path fill="#1C0332" d="M8 4c.442 0 .8.358.8.8l-.001 2.4H11.2c.442 0 .8.358.8.8 0 .442-.358.8-.8.8H8.799l.001 2.4c0 .442-.358.8-.8.8-.442 0-.8-.358-.8-.8V8.8H4.8c-.442 0-.8-.358-.8-.8 0-.442.358-.8.8-.8h2.4V4.8c0-.442.358-.8.8-.8zM13.572 15.8l2.218-1.848 5.304 6.279c.356.422.303 1.053-.118 1.409l-.006.004-.68.568c-.423.352-1.05.297-1.405-.123L13.572 15.8z"/>
    </g>
</svg>
