<svg xmlns="http://www.w3.org/2000/svg" xmlns:xlink="http://www.w3.org/1999/xlink" width="196" height="308" viewBox="0 0 196 308">
    <defs>
        <linearGradient id="prefix__c" x1="88.467%" x2="50%" y1="38.616%" y2="44.215%">
            <stop offset="0%" stop-opacity=".1"/>
            <stop offset="100%" stop-opacity=".989"/>
            <stop offset="100%"/>
        </linearGradient>
        <linearGradient id="prefix__e" x1="51.294%" x2="-8.265%" y1="64.908%" y2="46.094%">
            <stop offset="0%" stop-opacity="0"/>
            <stop offset="60.116%" stop-color="#333131"/>
            <stop offset="100%" stop-opacity=".989"/>
            <stop offset="100%"/>
            <stop offset="100%" stop-opacity="0"/>
        </linearGradient>
        <linearGradient id="prefix__g" x1="0%" x2="100%" y1="59.244%" y2="59.244%">
            <stop offset="0%" stop-color="#9B3AE5"/>
            <stop offset="100%" stop-color="#7825BE"/>
        </linearGradient>
        <linearGradient id="prefix__h" x1="0%" x2="100%" y1="59.244%" y2="59.244%">
            <stop offset="0%" stop-color="#9B3AE5"/>
            <stop offset="100%" stop-color="#7825BE"/>
        </linearGradient>
        <linearGradient id="prefix__i" x1="0%" x2="100%" y1="59.244%" y2="59.244%">
            <stop offset="0%" stop-color="#9B3AE5"/>
            <stop offset="100%" stop-color="#7825BE"/>
        </linearGradient>
        <linearGradient id="prefix__j" x1="0%" x2="100%" y1="59.244%" y2="59.244%">
            <stop offset="0%" stop-color="#9B3AE5"/>
            <stop offset="100%" stop-color="#7825BE"/>
        </linearGradient>
        <linearGradient id="prefix__k" x1="0%" x2="100%" y1="59.244%" y2="59.244%">
            <stop offset="0%" stop-color="#9B3AE5"/>
            <stop offset="100%" stop-color="#7825BE"/>
        </linearGradient>
        <linearGradient id="prefix__l" x1="0%" x2="100%" y1="59.244%" y2="59.244%">
            <stop offset="0%" stop-color="#9B3AE5"/>
            <stop offset="100%" stop-color="#7825BE"/>
        </linearGradient>
        <linearGradient id="prefix__m" x1="0%" x2="100%" y1="59.244%" y2="59.244%">
            <stop offset="0%" stop-color="#9B3AE5"/>
            <stop offset="100%" stop-color="#7825BE"/>
        </linearGradient>
        <linearGradient id="prefix__n" x1="0%" x2="100%" y1="59.244%" y2="59.244%">
            <stop offset="0%" stop-color="#9B3AE5"/>
            <stop offset="100%" stop-color="#7825BE"/>
        </linearGradient>
        <linearGradient id="prefix__o" x1="0%" x2="100%" y1="59.244%" y2="59.244%">
            <stop offset="0%" stop-color="#9B3AE5"/>
            <stop offset="100%" stop-color="#7825BE"/>
        </linearGradient>
        <linearGradient id="prefix__p" x1="9.012%" x2="85.011%" y1="45.1%" y2="47.832%">
            <stop offset="0%" stop-color="#972DF0"/>
            <stop offset="37.936%" stop-color="#7311C5"/>
            <stop offset="57.667%" stop-color="#972DF0"/>
            <stop offset="100%" stop-color="#7414C5"/>
        </linearGradient>
        <linearGradient id="prefix__q" x1="0%" x2="100%" y1="59.244%" y2="59.244%">
            <stop offset="0%" stop-color="#9B3AE5"/>
            <stop offset="100%" stop-color="#7825BE"/>
        </linearGradient>
        <linearGradient id="prefix__r" x1="0%" x2="100%" y1="59.244%" y2="59.244%">
            <stop offset="0%" stop-color="#9B3AE5"/>
            <stop offset="100%" stop-color="#7825BE"/>
        </linearGradient>
        <linearGradient id="prefix__s" x1="40.816%" x2="59.184%" y1="50%" y2="55.758%">
            <stop offset="0%" stop-color="#972DF0"/>
            <stop offset="100%" stop-color="#6C0DBC"/>
        </linearGradient>
        <linearGradient id="prefix__t" x1="0%" x2="100%" y1="59.244%" y2="59.244%">
            <stop offset="0%" stop-color="#9B3AE5"/>
            <stop offset="100%" stop-color="#7825BE"/>
        </linearGradient>
        <linearGradient id="prefix__u" x1="0%" x2="100%" y1="50%" y2="51.137%">
            <stop offset="0%" stop-color="#972DF0"/>
            <stop offset="100%" stop-color="#6C0DBC"/>
        </linearGradient>
        <linearGradient id="prefix__v" x1="0%" x2="100%" y1="59.244%" y2="59.244%">
            <stop offset="0%" stop-color="#9B3AE5"/>
            <stop offset="100%" stop-color="#7825BE"/>
        </linearGradient>
        <filter id="prefix__a" width="108.5%" height="105.3%" x="-5.3%" y="-1.3%" filterUnits="objectBoundingBox">
            <feOffset dx="-2" dy="4" in="SourceAlpha" result="shadowOffsetOuter1"/>
            <feGaussianBlur in="shadowOffsetOuter1" result="shadowBlurOuter1" stdDeviation="2"/>
            <feColorMatrix in="shadowBlurOuter1" values="0 0 0 0 0 0 0 0 0 0 0 0 0 0 0 0 0 0 0.203425481 0"/>
        </filter>
        <filter id="prefix__d" width="124.2%" height="141.2%" x="-12.1%" y="-20.6%" filterUnits="objectBoundingBox">
            <feGaussianBlur in="SourceGraphic" stdDeviation="3"/>
        </filter>
        <filter id="prefix__f" width="104.3%" height="106.7%" x="-2.1%" y="-3.3%" filterUnits="objectBoundingBox">
            <feGaussianBlur in="SourceGraphic" stdDeviation=".5"/>
        </filter>
        <rect id="prefix__b" width="188" height="300" x="0" y="0" rx="8"/>
    </defs>
    <g fill="none" fill-rule="evenodd" transform="translate(6)">
        <use fill="#000" filter="url(#prefix__a)" xlink:href="#prefix__b"/>
        <use fill="#CD9BFA" xlink:href="#prefix__b"/>
        <rect width="181" height="293" x="3.5" y="3.5" stroke="#FFF" stroke-width="7" rx="8"/>
        <text fill="#7825BE" font-family="PingFangSC-Semibold, PingFang SC" font-size="8" font-weight="500" letter-spacing="1" opacity=".5">
            <tspan x="77.176" y="280">VISION</tspan>
        </text>
        <text fill="#7825BE" font-family="PingFangSC-Semibold, PingFang SC" font-size="5" font-weight="500" opacity=".8" transform="rotate(-90 14.5 56.5)">
            <tspan x="-26.735" y="58">//// LEAN DATA DISCOVERY ////</tspan>
        </text>
        <g>
            <path fill="url(#prefix__c)" d="M29.707 124L66.263 95.415 78.612 92.785 104 117.339 47.809 136.473z" filter="url(#prefix__d)" opacity=".15" transform="translate(43 57)"/>
            <path fill="url(#prefix__e)" d="M29.707 125.121c-.816-4.13 1.31-7.902 6.378-11.314S51.06 103.186 65.809 92.18l29.62 6.307 4.035 15.027c-9.79 3.355-18.784 6.85-26.98 10.486-6.675 3.292-5.051 10.437-8.562 12.473-2.34 1.357-7.746.926-16.215-1.293l-18-10.059z" filter="url(#prefix__f)" opacity=".3" transform="translate(43 57)"/>
            <g transform="translate(43 57) translate(47.707 92.18)">
                <path fill="#6C0DBC" d="M18.102 20.307L36.203 10.154 36.203 22.306 18.102 32.514z"/>
                <path fill="#972DF0" d="M0 20.307L18.102 10.154 18.102 22.359 0 32.514z" transform="matrix(-1 0 0 1 18.102 0)"/>
                <path fill="#FFF0BA" d="M0 10.154L18.102 0 36.203 10.154 18.102 20.307z" transform="matrix(-1 0 0 1 36.203 0)"/>
                <ellipse cx="18.102" cy="14.835" fill="#8B6C0C" rx="3.974" ry="1.589"/>
                <path fill="#8B6C0C" d="M14.128 13.245H22.075V15.011H14.128z"/>
                <ellipse cx="18.102" cy="5.121" fill="#8B6C0C" rx="3.974" ry="1.589"/>
                <path fill="#8B6C0C" d="M14.128 3.532H22.075V5.298H14.128z"/>
                <ellipse cx="9.272" cy="9.978" fill="#8B6C0C" rx="3.974" ry="1.589"/>
                <path fill="#8B6C0C" d="M5.298 8.389H13.245000000000001V10.155H5.298z"/>
                <ellipse cx="26.932" cy="9.978" fill="#8B6C0C" rx="3.974" ry="1.589"/>
                <path fill="#8B6C0C" d="M22.958 8.389H30.904999999999998V10.155H22.958z"/>
                <ellipse cx="18.102" cy="13.069" fill="#FFFEF8" rx="3.974" ry="1.589"/>
                <path fill="#FFF0BA" d="M18.55 14.393c2.127-.068 3.98-.301 3.98-1.403s-1.878-1.684-4.32-1.684c-2.44 0-3.627.803-3.627 1.545 0 .743 1.84 1.61 3.966 1.542z"/>
                <ellipse cx="18.102" cy="3.355" fill="#FFFEF8" rx="3.974" ry="1.589"/>
                <path fill="#FFF0BA" d="M18.55 4.68c2.127-.069 3.98-.301 3.98-1.403s-1.878-1.684-4.32-1.684c-2.44 0-3.627.803-3.627 1.545 0 .742 1.84 1.61 3.966 1.542z"/>
                <ellipse cx="9.272" cy="8.212" fill="#FFFEF8" rx="3.974" ry="1.589"/>
                <path fill="#FFF0BA" d="M9.72 9.536c2.126-.068 3.98-.3 3.98-1.403 0-1.102-1.878-1.683-4.32-1.683-2.441 0-3.627.803-3.627 1.545 0 .742 1.84 1.61 3.966 1.541z"/>
                <ellipse cx="26.932" cy="8.212" fill="#FFFEF8" rx="3.974" ry="1.589"/>
                <path fill="#FFF0BA" d="M27.38 9.536c2.127-.068 3.98-.3 3.98-1.403 0-1.102-1.878-1.683-4.32-1.683-2.44 0-3.627.803-3.627 1.545 0 .742 1.84 1.61 3.967 1.541z"/>
            </g>
            <g transform="translate(43 57) translate(47.707 81)">
                <path fill="#6C0DBC" d="M18.102 20.307L36.203 10.154 36.203 22.306 18.102 32.514z"/>
                <path fill="#972DF0" d="M0 20.307L18.102 10.154 18.102 22.359 0 32.514z" transform="matrix(-1 0 0 1 18.102 0)"/>
                <path fill="#B469F3" d="M0 10.154L18.102 0 36.203 10.154 18.102 20.307z" transform="matrix(-1 0 0 1 36.203 0)"/>
                <ellipse cx="18.102" cy="14.835" fill="#8B6C0C" rx="3.974" ry="1.589"/>
                <path fill="#8B6C0C" d="M14.128 13.245H22.075V15.011H14.128z"/>
                <ellipse cx="18.102" cy="5.121" fill="#8B6C0C" rx="3.974" ry="1.589"/>
                <path fill="#8B6C0C" d="M14.128 3.532H22.075V5.298H14.128z"/>
                <ellipse cx="9.272" cy="9.978" fill="#8B6C0C" rx="3.974" ry="1.589"/>
                <path fill="#8B6C0C" d="M5.298 8.389H13.245000000000001V10.155H5.298z"/>
                <ellipse cx="26.932" cy="9.978" fill="#561091" rx="3.974" ry="1.589"/>
                <path fill="#561091" d="M22.958 8.389H30.904999999999998V10.155H22.958z"/>
                <ellipse cx="18.102" cy="13.069" fill="#FFFEF8" rx="3.974" ry="1.589"/>
                <path fill="#FFF0BA" d="M18.55 14.393c2.127-.068 3.98-.301 3.98-1.403s-1.878-1.684-4.32-1.684c-2.44 0-3.627.803-3.627 1.545 0 .743 1.84 1.61 3.966 1.542z"/>
                <ellipse cx="18.102" cy="3.355" fill="#FFFEF8" rx="3.974" ry="1.589"/>
                <path fill="#FFF0BA" d="M18.55 4.68c2.127-.069 3.98-.301 3.98-1.403s-1.878-1.684-4.32-1.684c-2.44 0-3.627.803-3.627 1.545 0 .742 1.84 1.61 3.966 1.542z"/>
                <ellipse cx="9.272" cy="8.212" fill="#FFFEF8" rx="3.974" ry="1.589"/>
                <path fill="#FFF0BA" d="M9.72 9.536c2.126-.068 3.98-.3 3.98-1.403 0-1.102-1.878-1.683-4.32-1.683-2.441 0-3.627.803-3.627 1.545 0 .742 1.84 1.61 3.966 1.541z"/>
                <ellipse cx="26.932" cy="8.212" fill="#FFFEF8" rx="3.974" ry="1.589"/>
                <path fill="#B469F3" d="M27.38 9.536c2.127-.068 3.98-.3 3.98-1.403 0-1.102-1.878-1.683-4.32-1.683-2.44 0-3.627.803-3.627 1.545 0 .742 1.84 1.61 3.967 1.541z"/>
            </g>
            <g transform="translate(43 57) translate(29.707 102.328)">
                <path fill="#6C0DBC" d="M18.102 20.307L36.203 10.154 36.203 22.306 18.102 32.514z"/>
                <path fill="#972DF0" d="M0 20.307L18.102 10.154 18.102 22.359 0 32.514z" transform="matrix(-1 0 0 1 18.102 0)"/>
                <path fill="#FFF0BA" d="M0 10.154L18.102 0 36.203 10.154 18.102 20.307z" transform="matrix(-1 0 0 1 36.203 0)"/>
                <ellipse cx="18.102" cy="14.835" fill="#8B6C0C" rx="3.974" ry="1.589"/>
                <path fill="#8B6C0C" d="M14.128 13.245H22.075V15.011H14.128z"/>
                <ellipse cx="18.102" cy="5.121" fill="#8B6C0C" rx="3.974" ry="1.589"/>
                <path fill="#8B6C0C" d="M14.128 3.532H22.075V5.298H14.128z"/>
                <ellipse cx="9.272" cy="9.978" fill="#8B6C0C" rx="3.974" ry="1.589"/>
                <path fill="#8B6C0C" d="M5.298 8.389H13.245000000000001V10.155H5.298z"/>
                <ellipse cx="26.932" cy="9.978" fill="#8B6C0C" rx="3.974" ry="1.589"/>
                <path fill="#8B6C0C" d="M22.958 8.389H30.904999999999998V10.155H22.958z"/>
                <ellipse cx="18.102" cy="13.069" fill="#FFFEF8" rx="3.974" ry="1.589"/>
                <path fill="#FFF0BA" d="M18.55 14.393c2.127-.068 3.98-.301 3.98-1.403s-1.878-1.684-4.32-1.684c-2.44 0-3.627.803-3.627 1.545 0 .743 1.84 1.61 3.966 1.542z"/>
                <ellipse cx="18.102" cy="3.355" fill="#FFFEF8" rx="3.974" ry="1.589"/>
                <path fill="#FFF0BA" d="M18.55 4.68c2.127-.069 3.98-.301 3.98-1.403s-1.878-1.684-4.32-1.684c-2.44 0-3.627.803-3.627 1.545 0 .742 1.84 1.61 3.966 1.542z"/>
                <ellipse cx="9.272" cy="8.212" fill="#FFFEF8" rx="3.974" ry="1.589"/>
                <path fill="#FFF0BA" d="M9.72 9.536c2.126-.068 3.98-.3 3.98-1.403 0-1.102-1.878-1.683-4.32-1.683-2.441 0-3.627.803-3.627 1.545 0 .742 1.84 1.61 3.966 1.541z"/>
                <ellipse cx="26.932" cy="8.212" fill="#FFFEF8" rx="3.974" ry="1.589"/>
                <path fill="#FFF0BA" d="M27.38 9.536c2.127-.068 3.98-.3 3.98-1.403 0-1.102-1.878-1.683-4.32-1.683-2.44 0-3.627.803-3.627 1.545 0 .742 1.84 1.61 3.967 1.541z"/>
            </g>
            <g transform="translate(43 57) translate(29.707 91)">
                <path fill="#6C0DBC" d="M18.102 20.307L36.203 10.154 36.203 22.306 18.102 32.514z"/>
                <path fill="#972DF0" d="M0 20.307L18.102 10.154 18.102 22.359 0 32.514z" transform="matrix(-1 0 0 1 18.102 0)"/>
                <path fill="#B469F3" d="M0 10.154L18.102 0 36.203 10.154 18.102 20.307z" transform="matrix(-1 0 0 1 36.203 0)"/>
                <ellipse cx="18.102" cy="14.835" fill="#8B6C0C" rx="3.974" ry="1.589"/>
                <path fill="#8B6C0C" d="M14.128 13.245H22.075V15.011H14.128z"/>
                <ellipse cx="18.102" cy="5.121" fill="#8B6C0C" rx="3.974" ry="1.589"/>
                <path fill="#8B6C0C" d="M14.128 3.532H22.075V5.298H14.128z"/>
                <ellipse cx="9.272" cy="9.978" fill="#8B6C0C" rx="3.974" ry="1.589"/>
                <path fill="#8B6C0C" d="M5.298 8.389H13.245000000000001V10.155H5.298z"/>
                <ellipse cx="26.932" cy="9.978" fill="#8B6C0C" rx="3.974" ry="1.589"/>
                <path fill="#8B6C0C" d="M22.958 8.389H30.904999999999998V10.155H22.958z"/>
                <ellipse cx="18.102" cy="13.069" fill="#FFFEF8" rx="3.974" ry="1.589"/>
                <path fill="#FFF0BA" d="M18.55 14.393c2.127-.068 3.98-.301 3.98-1.403s-1.878-1.684-4.32-1.684c-2.44 0-3.627.803-3.627 1.545 0 .743 1.84 1.61 3.966 1.542z"/>
                <ellipse cx="18.102" cy="3.355" fill="#FFFEF8" rx="3.974" ry="1.589"/>
                <path fill="#FFF0BA" d="M18.55 4.68c2.127-.069 3.98-.301 3.98-1.403s-1.878-1.684-4.32-1.684c-2.44 0-3.627.803-3.627 1.545 0 .742 1.84 1.61 3.966 1.542z"/>
                <ellipse cx="9.272" cy="8.212" fill="#FFFEF8" rx="3.974" ry="1.589"/>
                <path fill="#FFF0BA" d="M9.72 9.536c2.126-.068 3.98-.3 3.98-1.403 0-1.102-1.878-1.683-4.32-1.683-2.441 0-3.627.803-3.627 1.545 0 .742 1.84 1.61 3.966 1.541z"/>
                <ellipse cx="26.932" cy="8.212" fill="#FFFEF8" rx="3.974" ry="1.589"/>
                <path fill="#FFF0BA" d="M27.38 9.536c2.127-.068 3.98-.3 3.98-1.403 0-1.102-1.878-1.683-4.32-1.683-2.44 0-3.627.803-3.627 1.545 0 .742 1.84 1.61 3.967 1.541z"/>
            </g>
            <g transform="translate(43 57) translate(34)">
                <g transform="translate(36.085 75.791)">
                    <ellipse cx="5.197" cy="15.463" fill="url(#prefix__g)" rx="5.197" ry="2.227"/>
                    <path fill="url(#prefix__h)" d="M0 2.227L10.393 2.227 10.393 15.481 0 15.481z"/>
                    <ellipse cx="5.197" cy="2.227" fill="#A848F7" rx="5.197" ry="2.227"/>
                </g>
                <g transform="translate(36.884 71.117)">
                    <ellipse cx="4.397" cy="6.319" fill="url(#prefix__i)" rx="4.397" ry="1.885"/>
                    <path fill="url(#prefix__j)" d="M0 1.885L8.794 1.885 8.794 6.396 0 6.396z"/>
                    <ellipse cx="4.397" cy="1.885" fill="#A848F7" rx="4.397" ry="1.885"/>
                </g>
                <ellipse cx="41.281" cy="72.659" fill="url(#prefix__k)" rx="3.598" ry="1.542"/>
                <path fill="url(#prefix__l)" d="M37.684 69.518L44.879 69.518 44.879 72.716 37.684 72.716z"/>
                <ellipse cx="41.281" cy="69.461" fill="#A848F7" rx="3.598" ry="1.542"/>
                <ellipse cx="41.281" cy="69.118" fill="url(#prefix__m)" rx="2.798" ry="1.199"/>
                <path fill="url(#prefix__n)" d="M38.483 67.519H44.07899999999999V69.11800000000001H38.483z"/>
                <ellipse cx="41.281" cy="67.519" fill="#A848F7" rx="2.798" ry="1.199"/>
                <path fill="url(#prefix__o)" d="M39.283 28.744H43.28V67.119H39.283z"/>
                <path fill="#B469F3" d="M6.094 1.153L7.259.72C14 2.53 17.534 3.653 19.489 4.863c3.448 2.133 3.435 5.869 5.313 6.626 3.326 1.34 8.287.965 13.842 4.263 1.56.926 3.316 2.995 5.267 6.208l-1.805 12.847c-2.986-2.33-6.268-4.231-9.847-5.705-2.116-.87-4.187-1.941-10.768-3.704-2.77-.743-6.496-7.333-7.825-7.689-2.46-.659-5.22-1.56-8.284-2.704v-2.65l.99-.572c4.828 1.065 7.931 1.857 9.308 2.375 1.686.635 2.983 2.025 4.648 3.585.357.335 1 .496 1.93.482-1.275-1.364-2.105-2.397-2.49-3.098-2.252-4.101-3.426-6.895-4.991-8.328-1.029-.941-3.923-2.255-8.683-3.94V1.152z"/>
                <path fill="url(#prefix__p)" d="M2.453 5.888c6.49.065 10.88.443 13.17 1.132 3.883 1.168 4.694 5.34 7.442 5.34 3.645 0 8.584-.955 14.803.792l4.195 15.654c-.928-.73-3.311-1.343-7.15-1.84-2.27-.294-3.06-.914-9.836-1.12-4.111-.125-7.117-3.356-9.059-4.25-2.722-1.251-6.27-1.94-10.646-2.064l-.707-2.64c5.587-.147 9.112-.149 10.575-.004 1.794.176 2.448 1.273 4.455 2.349.532.285 1.222.33 2.07.136.269-.062.437-.33.375-.6-.03-.132-.114-.247-.231-.317-1.023-.611-1.75-1.14-2.177-1.587-3.237-3.379-3.242-5.333-6.626-6.143-2.257-.54-5.579-1.3-9.967-2.277l-.686-2.56z" transform="rotate(15 22.258 17.347)"/>
                <ellipse cx="41.281" cy="35.54" fill="url(#prefix__q)" rx="4.397" ry="1.999"/>
                <path fill="url(#prefix__r)" d="M36.884 33.141H45.678V35.539H36.884z"/>
                <ellipse cx="41.281" cy="33.141" fill="#A848F7" rx="4.397" ry="1.999"/>
                <path fill="url(#prefix__s)" d="M37.684 15.952H44.879V32.741H37.684z"/>
                <ellipse cx="41.281" cy="15.952" fill="#B469F3" rx="3.598" ry="1.599"/>
                <path fill="url(#prefix__t)" d="M39.283 12.355H43.28V15.553H39.283z"/>
                <ellipse cx="41.281" cy="12.355" fill="#A848F7" rx="1.999" ry="1"/>
                <ellipse cx="41.281" cy="32.741" fill="url(#prefix__u)" rx="3.598" ry="1.599"/>
                <ellipse cx="41.281" cy="15.552" fill="url(#prefix__v)" rx="1.999" ry="1"/>
                <ellipse cx="41.281" cy="67.119" fill="url(#prefix__v)" rx="1.999" ry="1"/>
            </g>
            <g transform="translate(43 57) rotate(5 -326.96 101.308)">
                <path fill="#A063C5" d="M45.758 70.128c4.77 1.239 7.445 7.695 12.913 5.212 1.663-.755 5.852-4.116 7.707-6.073 2.949-3.11 4.404-8.709 4.82-14.65-.014-7.923-2.252-15.318-5.692-21.919l-3.61 2.148-6.892-10.334c2.223-1.63 3.338-2.508 3.347-2.635C49.91 10.75 38.201 3.587 32.498 2.079c-3.535-.934-8.295-.934-9.768-.559-1.473.375-8.279 3.423-11.606 5.871-2.71 1.995-1.36 9.028-1.32 14.671.148 21.131 26.63 45.744 35.954 48.066z"/>
                <path fill="#DFABFF" d="M39.532 75.5c8.445 2.192 23.862 7.044 25.44-15.512-.05-28.264-29.346-50.28-39.642-53.002-10.296-2.722-21.9-.683-21.752 20.448.148 21.13 26.63 45.744 35.954 48.066z"/>
                <ellipse cx="33.23" cy="42.136" fill="#561091" rx="13.218" ry="22.989" transform="rotate(-36 33.23 42.136)"/>
                <ellipse cx="34.38" cy="41.492" fill="#B469F3" rx="13.218" ry="22.989" transform="rotate(-36 34.38 41.492)"/>
                <ellipse cx="33.903" cy="41.904" fill="#7825BE" rx="9.492" ry="18.391" transform="rotate(-36 33.903 41.904)"/>
                <ellipse cx="33.833" cy="42.254" fill="#B469F3" rx="5.216" ry="13.276" transform="rotate(-36 33.833 42.254)"/>
                <ellipse cx="34.268" cy="42.672" fill="#7825BE" rx="2.371" ry="6.638" transform="rotate(-36 34.268 42.672)"/>
                <g transform="scale(1 -1) rotate(-51 -6.539 -43.648)">
                    <ellipse cx="7.891" cy="6.945" fill="#561091" rx="6.634" ry="2.654" transform="rotate(-5 7.891 6.945)"/>
                    <path fill="#561091" d="M1.107 4.27L14.376 4.27 14.5 6.366 1.282 7.523z"/>
                    <ellipse cx="7.634" cy="4.007" fill="#FEFEF8" rx="6.634" ry="2.654" transform="rotate(-5 7.634 4.007)"/>
                    <path fill="#DFABFF" d="M8.572 6.145c3.528-.423 6.576-1.08 6.416-2.913-.16-1.833-3.369-2.527-7.43-2.172-4.06.355-5.916 1.864-5.808 3.098.108 1.235 3.294 2.41 6.822 1.987z"/>
                </g>
                <g transform="scale(1 -1) rotate(-60 -13.693 -64.672)">
                    <ellipse cx="6.634" cy="5.891" fill="#561091" rx="6.634" ry="2.654"/>
                    <path fill="#561091" d="M0 3.237H13.268V6.186H0z"/>
                    <ellipse cx="6.634" cy="2.943" fill="#FEFEF8" rx="6.634" ry="2.654"/>
                    <path fill="#DFABFF" d="M7.382 5.154c3.551-.114 6.646-.503 6.646-2.343C14.028.971 10.892 0 6.816 0S.759 1.341.759 2.58c0 1.24 3.071 2.688 6.623 2.574z"/>
                </g>
                <g transform="scale(1 -1) rotate(-57 -30.976 -75.254)">
                    <ellipse cx="6.634" cy="5.891" fill="#561091" rx="6.634" ry="2.654"/>
                    <path fill="#561091" d="M0 3.237H13.268V6.186H0z"/>
                    <ellipse cx="6.634" cy="2.943" fill="#FEFEF8" rx="6.634" ry="2.654"/>
                    <path fill="#DFABFF" d="M7.382 5.154c3.551-.114 6.646-.503 6.646-2.343C14.028.971 10.892 0 6.816 0S.759 1.341.759 2.58c0 1.24 3.071 2.688 6.623 2.574z"/>
                </g>
                <g transform="scale(1 -1) rotate(-56 -46.04 -64.76)">
                    <ellipse cx="6.634" cy="5.891" fill="#561091" rx="6.634" ry="2.654"/>
                    <path fill="#561091" d="M0 3.237H13.268V6.186H0z"/>
                    <ellipse cx="6.634" cy="2.943" fill="#FEFEF8" rx="6.634" ry="2.654"/>
                    <path fill="#DFABFF" d="M7.382 5.154c3.551-.114 6.646-.503 6.646-2.343C14.028.971 10.892 0 6.816 0S.759 1.341.759 2.58c0 1.24 3.071 2.688 6.623 2.574z"/>
                </g>
                <g transform="scale(1 -1) rotate(-55 -47.565 -46.54)">
                    <ellipse cx="6.634" cy="5.891" fill="#561091" rx="6.634" ry="2.654"/>
                    <path fill="#561091" d="M0 3.237H13.268V6.186H0z"/>
                    <ellipse cx="6.634" cy="2.943" fill="#FEFEF8" rx="6.634" ry="2.654"/>
                    <path fill="#DFABFF" d="M7.382 5.154c3.551-.114 6.646-.503 6.646-2.343C14.028.971 10.892 0 6.816 0S.759 1.341.759 2.58c0 1.24 3.071 2.688 6.623 2.574z"/>
                </g>
                <g transform="scale(1 -1) rotate(-57 -1.741 -22.274)">
                    <ellipse cx="6.634" cy="5.891" fill="#561091" rx="6.634" ry="2.654"/>
                    <path fill="#561091" d="M0 3.237H13.268V6.186H0z"/>
                    <ellipse cx="6.634" cy="2.943" fill="#FEFEF8" rx="6.634" ry="2.654"/>
                    <path fill="#DFABFF" d="M7.382 5.154c3.551-.114 6.646-.503 6.646-2.343C14.028.971 10.892 0 6.816 0S.759 1.341.759 2.58c0 1.24 3.071 2.688 6.623 2.574z"/>
                </g>
                <g transform="scale(1 -1) rotate(-55 -17.214 -12.043)">
                    <ellipse cx="6.634" cy="5.891" fill="#561091" rx="6.634" ry="2.654"/>
                    <path fill="#561091" d="M0 3.237H13.268V6.186H0z"/>
                    <ellipse cx="6.634" cy="2.943" fill="#FEFEF8" rx="6.634" ry="2.654"/>
                    <path fill="#DFABFF" d="M7.382 5.154c3.551-.114 6.646-.503 6.646-2.343C14.028.971 10.892 0 6.816 0S.759 1.341.759 2.58c0 1.24 3.071 2.688 6.623 2.574z"/>
                </g>
                <g transform="scale(1 -1) rotate(-57 -30.99 -19.99)">
                    <ellipse cx="6.634" cy="5.891" fill="#561091" rx="6.634" ry="2.654"/>
                    <path fill="#561091" d="M0 3.237H13.268V6.186H0z"/>
                    <ellipse cx="6.634" cy="2.943" fill="#FEFEF8" rx="6.634" ry="2.654"/>
                    <path fill="#DFABFF" d="M7.382 5.154c3.551-.114 6.646-.503 6.646-2.343C14.028.971 10.892 0 6.816 0S.759 1.341.759 2.58c0 1.24 3.071 2.688 6.623 2.574z"/>
                </g>
            </g>
        </g>
        <path fill="#FFF" d="M79 7c0 8.56 6.94 15.5 15.5 15.5 8.56 0 15.5-6.94 15.5-15.5H79z"/>
        <path fill="#C592F2" d="M94.5 15.583c2.416 0 4.438-1.06 6.064-3.183.275-.359.275-.858 0-1.217C98.938 9.061 96.916 8 94.5 8s-4.438 1.061-6.064 3.183c-.275.36-.275.858 0 1.217 1.626 2.122 3.648 3.183 6.064 3.183z"/>
        <path fill="#FFF" d="M94.53 14.3c1.066 0 1.93-1.426 1.93-2.5s-.864-2.5-1.93-2.5c-1.066 0-1.93 1.426-1.93 2.5s.864 2.5 1.93 2.5z"/>
    </g>
</svg>
